<svg width="122" height="151" viewBox="0 0 122 151" fill="none" xmlns="http://www.w3.org/2000/svg">
<path fill-rule="evenodd" clip-rule="evenodd" d="M77.939 43.3139C89.9769 39.2384 105.177 44.8842 108.92 36.0094C111.295 30.3929 104.288 25.0859 98.8892 22.0404C91.3369 17.7806 91.8752 10.0153 92.2145 2.22642C95.2528 -2.1045 99.2329 2.06085 99.2767 2.45431C99.415 3.91795 96.286 9.89879 101.951 14.3666C108.142 19.2446 115.374 20.6614 119.727 28.2815C124.14 36.3642 119.297 48.5034 110.871 53.4905C116.131 51.3404 118.56 50.2515 121.087 45.2769C118.979 53.0142 114.166 57.4514 106.27 59.4648C106.547 59.6525 109.971 60.9515 108.331 61.5939C104.843 62.9675 102.646 68.9621 99.7489 72.0258C93.6214 78.4022 90.6657 76.9209 90.3082 79.4469C98.3228 86.5688 91.9799 99.5815 77.3044 94.6679C72.5384 103.57 70.9484 109.201 71.2782 114.569C71.57 119.092 74.6255 125.43 77.0947 129.947C79.7308 134.8 80.5508 133.674 79.0857 138.851C78.5349 140.828 78.5842 140.512 81.4903 143.587C83.8853 146.129 83.8743 149.082 82.1583 151.178C80.1983 153.509 73.9713 153.678 70.4919 151.905C69.2715 151.293 67.219 149.382 67.1271 147.08C67.0398 144.941 68.4327 143.681 68.4162 141.24C68.4217 140.531 67.307 139.68 66.7126 138.341C65.9426 136.631 65.979 134.802 64.9382 132.747C61.2716 125.479 55.1236 121.868 52.6918 116.256C51.8306 114.257 52.5395 112.47 52.3256 109.536C32.3559 119.247 32.7118 114.009 23.3389 120.421C18.2388 123.9 16.6626 127.064 13.7426 138.59C15.254 143.211 19.3389 145.052 19.222 148.06C19.053 152.395 13.5383 154.701 8.88822 153.83C6.78597 153.44 4.83501 151.457 3.90777 148.648C3.20631 146.48 3.57427 143.667 3.25027 140.843C2.89346 137.743 2.14791 131.928 2.52688 129.267C3.32772 123.716 6.71861 116.401 6.84518 114.163C7.02633 110.752 4.25748 106.834 3.8759 98.4451C2.75392 106.265 5.73216 114.525 3.51891 119.761C3.86079 106.134 -2.49771 97.3729 3.00176 82.6879C5.00239 77.6519 8.64729 73.4404 13.3442 70.7378C20.502 66.7038 30.4068 67.9634 41.3661 65.6668C48.6225 64.1451 57.2617 60.2626 64.8284 57.9275C65.5602 51.0051 69.3742 46.2493 77.939 43.3139ZM88.4519 52.6205C93.2654 52.8624 93.7351 53.2314 95.6282 49.3908C92.0434 49.5386 91.2751 49.0791 88.4152 52.6205L88.4519 52.6205Z" fill="#913A0D"/>
</svg>
