<svg width="120" height="116" viewBox="0 0 120 116" fill="none" xmlns="http://www.w3.org/2000/svg">
<g clip-path="url(#clip0_1_594)">
<path d="M35.6339 61.001C34.4946 63.7998 33.6583 66.8488 34.2049 69.7003C34.8673 72.6916 36.131 75.5169 37.9191 78.0046C39.2362 79.9275 41.5147 82.5156 44.0172 82.3839C46.8094 82.239 48.1463 79.348 48.3768 76.8982C48.706 73.5331 46.9543 71.1228 45.815 68.1067C45.0837 66.2141 44.6893 64.2083 44.6494 62.1798C44.9392 60.9088 45.3079 59.651 45.6701 58.4195C46.5848 55.5321 47.7528 52.7312 49.1604 50.0494C49.5937 49.0617 50.1207 48.1178 50.7343 47.2308C51.1759 46.5612 51.5741 45.8639 51.9263 45.1432C51.9856 45.0181 52.0449 44.8864 52.0975 44.7613C52.1381 44.3849 52.0696 44.0048 51.9003 43.6663C51.731 43.3277 51.468 43.0449 51.1426 42.8515C50.6623 42.5564 50.1407 42.3345 49.5951 42.1929C49.4067 42.1193 49.2039 42.09 49.0024 42.1073C48.5677 42.1798 48.3438 42.6276 48.0211 42.9108C47.5799 43.3256 47.1519 43.7669 46.7041 44.2278C45.8545 45.1037 45.0445 46.0125 44.2609 46.9476C41.4963 50.1824 39.1305 53.7377 37.2144 57.537C36.7008 58.6105 36.1344 59.7695 35.6339 61.001Z" fill="#72603D"/>
<g style="mix-blend-mode:multiply" opacity="0.45">
<path d="M47.6392 53.1906L47.0399 52.9865C45.3514 52.367 43.702 51.6457 42.1008 50.8265L41.4423 50.5104C42.3203 49.2723 43.2599 48.0672 44.2608 46.895C45.0445 45.9598 45.8545 45.051 46.7041 44.1752C47.1255 43.7339 47.5536 43.2927 48.0211 42.8581C48.3241 42.5749 48.5677 42.1271 49.0024 42.0547C49.2039 42.0373 49.4067 42.0666 49.5951 42.1403C50.1407 42.2818 50.6623 42.5038 51.1426 42.7988C51.468 42.9922 51.731 43.275 51.9003 43.6136C52.0696 43.9522 52.1381 44.3322 52.0975 44.7086C52.0449 44.8337 51.9856 44.9654 51.9263 45.0906C51.5741 45.8112 51.1759 46.5085 50.7343 47.1781C50.1177 48.0819 49.5906 49.0435 49.1604 50.0494C48.6116 51.0723 48.1046 52.1194 47.6392 53.1906Z" fill="#72603D"/>
</g>
<g style="mix-blend-mode:multiply" opacity="0.45">
<path d="M35.7063 61.0734C36.9403 60.9888 38.1777 60.9669 39.4139 61.0075C40.6452 61.0509 41.8714 61.1874 43.082 61.4158C43.6419 61.5201 44.1959 61.6542 44.7416 61.8175C44.7416 61.9427 44.6823 62.0744 44.6494 62.1995C44.6892 64.228 45.0837 66.2339 45.815 68.1264C46.9543 71.1425 48.706 73.5528 48.3767 76.918C48.1462 79.3678 46.8094 82.2588 44.0172 82.4036C41.5147 82.5353 39.2032 79.9473 37.919 78.0243C36.1309 75.5366 34.8673 72.7113 34.2048 69.7201C33.678 66.8949 34.4748 63.8788 35.601 61.0997L35.7063 61.0734Z" fill="#72603D"/>
</g>
<path d="M54.0402 40.9417C54.1455 40.8298 54.6592 40.2107 54.1455 40.1712C54.0601 40.1649 53.9749 40.1857 53.9019 40.2305C52.916 40.7118 52.024 41.3652 51.2677 42.16C50.9714 42.4432 49.1077 43.9974 49.7135 44.4452C49.8097 44.4956 49.9181 44.5181 50.0264 44.5099C50.1347 44.5018 50.2385 44.4634 50.326 44.3991C50.947 44.0045 51.5175 43.5357 52.025 43.003C52.6627 42.4225 53.2652 41.8045 53.8294 41.1524L54.0402 40.9417Z" fill="#D4C59B"/>
<path d="M54.6659 41.6793C54.4073 42.1381 54.1168 42.5782 53.7966 42.9964C53.4409 43.4882 53.0514 43.9547 52.631 44.3925C52.3091 44.7646 51.9314 45.0845 51.5114 45.3408C51.3506 45.4663 51.1524 45.5344 50.9484 45.5344C50.7444 45.5344 50.5462 45.4663 50.3853 45.3408C50.2997 45.2618 50.2141 45.0905 50.2931 44.9852C50.4947 44.7254 50.7398 44.5026 51.0175 44.3266C51.5971 43.7998 52.1568 43.2532 52.6902 42.6737C53.3488 41.9559 54.0073 41.2249 54.6659 40.5334C54.8173 40.3819 55.0215 40.6849 55.0281 40.81C54.9852 41.1264 54.8603 41.4261 54.6659 41.6793Z" fill="#D4C59B"/>
<path d="M52.7888 39.6509C52.2992 39.8579 51.822 40.0932 51.3597 40.3556C50.8307 40.6523 50.3225 40.9845 49.8385 41.35C49.4319 41.6326 49.0719 41.977 48.7716 42.3707C48.6335 42.5212 48.5484 42.7127 48.5294 42.9161C48.5104 43.1194 48.5585 43.3234 48.6663 43.4968C48.7321 43.589 48.8902 43.6944 49.0087 43.6286C49.2889 43.4533 49.5362 43.2304 49.7397 42.97C50.3268 42.4516 50.94 41.9636 51.577 41.508C52.3673 40.9417 53.1773 40.4017 53.9412 39.8024C54.1124 39.6707 53.8358 39.4336 53.7107 39.4073C53.3876 39.4084 53.0702 39.4923 52.7888 39.6509Z" fill="#D4C59B"/>
<path d="M73.9019 71.2479C73.184 65.4395 72.5848 59.9473 74.1653 54.0006C74.4945 52.7691 74.9885 51.6035 75.3836 50.3984C75.8576 49.2467 76.0057 47.9868 75.8116 46.7566C75.657 46.2209 75.3429 45.7449 74.9112 45.392C74.4795 45.0391 73.9506 44.826 73.3948 44.781C72.9403 44.7293 72.4807 44.747 72.0316 44.8337C70.9388 45.4011 69.9137 46.0904 68.9759 46.8883C63.6417 51.2874 61.9624 59.6773 61.6859 66.243C61.498 70.5611 62.0277 74.8805 63.2532 79.0253C64.0039 81.5607 66.2035 89.6147 69.8386 89.2723C70.488 89.174 71.0884 88.8692 71.5508 88.403C73.5265 86.5591 74.5143 83.0161 74.6526 80.3622C74.7909 77.3329 74.2443 74.2575 73.9019 71.2479Z" fill="#72603D"/>
<g style="mix-blend-mode:multiply" opacity="0.45">
<path d="M63.2796 71.6562C64.4255 70.9318 65.5845 70.2272 66.783 69.5884C67.3823 69.2657 67.9948 68.9298 68.6204 68.6796C69.2276 68.4108 69.8552 68.1906 70.4972 68.0211C71.4668 67.78 72.4567 67.6301 73.4541 67.5732C73.5726 68.7784 73.7241 69.9901 73.8756 71.215C74.2444 74.2245 74.791 77.2999 74.6329 80.3424C74.4946 82.9766 73.5265 86.5393 71.5312 88.3832C71.0687 88.8495 70.4683 89.1543 69.8189 89.2525C66.2035 89.595 64.004 81.541 63.2335 79.0056C62.6113 76.8734 62.1707 74.6925 61.9164 72.486L63.2796 71.6562Z" fill="#72603D"/>
</g>
<g style="mix-blend-mode:multiply" opacity="0.45">
<path d="M74.139 54.0007C73.8271 55.1791 73.5874 56.3755 73.4212 57.5832C72.1041 57.7017 70.787 57.7807 69.4699 57.8005C68.1528 57.8202 66.7567 57.8005 65.4067 57.6819C64.5967 57.6227 63.7867 57.5239 62.9766 57.4119C64.0237 53.3421 65.8808 49.3909 68.976 46.8621C69.9124 46.0549 70.9376 45.3568 72.0316 44.7811C72.4834 44.7119 72.9431 44.7119 73.3948 44.7811C73.9506 44.826 74.4795 45.0392 74.9113 45.3921C75.343 45.745 75.657 46.2209 75.8117 46.7567C75.9974 47.9893 75.8402 49.2492 75.3573 50.3984C74.9622 51.6036 74.4682 52.7692 74.139 54.0007Z" fill="#72603D"/>
</g>
<path d="M78.7223 45.2025C78.7501 45.2318 78.7656 45.2707 78.7656 45.3111C78.7656 45.3516 78.7501 45.3905 78.7223 45.4198C78.5589 45.6162 78.3448 45.7642 78.1033 45.8479C77.8662 45.9598 77.616 46.0454 77.3723 46.1376C76.9097 46.2823 76.4847 46.5275 76.1277 46.8554C75.8379 47.1452 75.5943 47.481 75.2913 47.7576C75.1569 47.8916 74.9982 47.9989 74.8238 48.0737C74.6686 48.1163 74.5048 48.1163 74.3496 48.0737C74.185 48.0737 74.0269 47.9552 74.0335 47.7774C74.0572 47.566 74.1393 47.3653 74.2706 47.1979C74.3628 47.0662 74.455 46.941 74.5603 46.8159C75.2116 46.2117 75.9903 45.7615 76.8389 45.4988C77.4338 45.2503 78.0799 45.1487 78.7223 45.2025Z" fill="#D4C59B"/>
<path d="M77.6489 44.2015C77.6634 44.2156 77.675 44.2325 77.6829 44.2512C77.6908 44.2699 77.6948 44.2899 77.6948 44.3102C77.6948 44.3304 77.6908 44.3505 77.6829 44.3692C77.675 44.3878 77.6634 44.4047 77.6489 44.4188C77.4966 44.6229 77.2884 44.7784 77.0496 44.8666C76.8191 44.9852 76.5689 45.084 76.3252 45.1828C75.8701 45.3454 75.4564 45.6062 75.1135 45.9467C74.8303 46.243 74.5998 46.6052 74.3035 46.8752C74.1731 47.0144 74.0164 47.1263 73.8425 47.2045C73.697 47.266 73.5363 47.282 73.3815 47.2506C73.2103 47.2506 73.0522 47.1518 73.0456 46.9674C73.0646 46.7551 73.1422 46.5522 73.2696 46.3813C73.3486 46.2496 73.4474 46.1179 73.5396 45.9928C74.1651 45.3525 74.9287 44.8638 75.772 44.5637C76.3586 44.2912 77.003 44.1668 77.6489 44.2015Z" fill="#D4C59B"/>
<path d="M76.7337 43.734C76.7606 43.7651 76.7754 43.8048 76.7754 43.8459C76.7754 43.887 76.7606 43.9267 76.7337 43.9579C76.5576 44.1539 76.3291 44.2956 76.0752 44.3662C75.8315 44.4649 75.5813 44.544 75.331 44.6296C74.8665 44.7541 74.4349 44.9789 74.0666 45.2881C73.7703 45.5713 73.5134 45.894 73.1973 46.1574C73.0564 46.2862 72.8936 46.3888 72.7166 46.4603C72.5637 46.503 72.402 46.503 72.249 46.4603C72.0778 46.4603 71.9263 46.3352 71.9395 46.1574C71.9694 45.946 72.0585 45.7474 72.1964 45.5845C72.2885 45.4593 72.3939 45.3342 72.4993 45.2157C73.1636 44.6175 73.9568 44.1803 74.8174 43.9381C75.4308 43.7186 76.0878 43.6486 76.7337 43.734Z" fill="#D4C59B"/>
<path d="M5.14977 23.5364C5.17721 22.8031 5.31942 22.0787 5.57124 21.3895C5.68963 21.0836 5.84204 20.792 6.02563 20.5202C7.48802 20.674 8.92578 21.008 10.3062 21.5146C13.6777 22.6294 16.9656 23.9829 20.1448 25.5647C21.2709 26.1113 22.3839 26.6974 23.4376 27.3493C24.4517 27.863 25.4527 28.4162 26.4274 28.9891C25.9503 27.7708 25.3983 26.5831 24.7744 25.433C23.892 23.6615 23.0754 21.8505 22.2193 20.0658C21.3631 18.2812 20.5202 16.299 19.7234 14.3892C19.2887 13.3487 18.4985 11.8933 19.4929 10.9253C20.3095 10.1284 21.7912 9.89793 22.5683 10.8331C22.9382 11.3749 23.2122 11.9764 23.3783 12.6111C23.7405 13.6121 24.0829 14.5868 24.4385 15.6207C25.7003 19.3376 27.3099 22.9272 29.2459 26.3418C30.1568 27.9566 31.1662 29.5137 32.2686 31.0043C33.2722 32.4308 34.505 33.6814 35.917 34.7053C37.5985 35.6887 39.2997 36.6348 41.0207 37.5436C45.5184 40.0207 50.2445 42.0585 55.1333 43.6286C59.9211 45.0971 64.9032 45.8342 69.9111 45.8149C79.6905 45.703 89.0484 42.2785 97.2275 37.076C100.863 34.7646 104.109 31.8735 107.87 29.753C110.945 28.0145 114.969 26.4603 118.485 27.7774L118.834 27.9289C118.92 28.1923 118.999 28.4623 119.071 28.7257C119.639 30.8656 119.95 33.0651 120 35.2782C120.052 37.6093 119.902 39.9404 119.552 42.2456C119.348 43.6769 119.071 45.0968 118.722 46.4998L118.472 46.6052C117.025 47.1486 115.536 47.5758 114.02 47.8828C111.959 48.3503 109.918 48.8837 107.85 49.3316C105.216 49.8979 102.581 50.4247 100.026 51.1557C97.4712 51.8867 95.0214 52.8087 92.5189 53.6384C88.1652 55.0638 83.6578 55.968 79.0912 56.3319C70.4701 57.0747 61.7862 56.1992 53.487 53.7504C49.1513 52.4739 44.9585 50.7548 40.9746 48.6203C39.967 47.9618 38.999 47.3032 38.0112 46.6447C35.8528 45.1098 33.7776 43.4611 31.7945 41.7056C29.8847 40.0197 28.0737 38.2219 26.2166 36.4834C23.8475 34.1533 21.2951 32.0171 18.5841 30.0955C15.5548 28.0606 12.3082 27.0201 8.92323 25.7425C7.61455 25.2753 6.34962 24.6935 5.14318 24.0039C5.1366 23.8459 5.14319 23.7076 5.14977 23.5364Z" fill="#8C6742"/>
<g style="mix-blend-mode:multiply">
<path d="M95.8247 43.3718C97.0167 42.5881 98.1955 41.7715 99.3743 40.9681C100.553 40.1646 101.732 39.3612 102.95 38.6171C104.152 37.8803 105.399 37.2205 106.684 36.6414C107.04 36.4768 107.402 36.3253 107.771 36.1805L106.829 36.9839C105.703 37.9914 104.557 38.9595 103.378 39.9144C102.19 40.8609 100.95 41.7403 99.6641 42.5486C98.4138 43.3477 97.0908 44.0268 95.7128 44.5769C94.5337 45.0521 93.3024 45.3859 92.0447 45.5713L92.1237 45.5318C93.4211 44.8864 94.6328 44.1225 95.8247 43.3718Z" fill="#8C6742"/>
</g>
<g style="mix-blend-mode:multiply">
<path d="M21.1392 26.0652L21.5146 26.322C22.9537 27.2951 24.2183 28.504 25.2551 29.8979L25.0839 29.7728C23.6841 28.7928 22.2308 27.8914 20.7309 27.0728C19.2624 26.2627 17.7543 25.5186 16.2265 24.8337C14.6986 24.1488 13.1774 23.5166 11.6167 22.9239C10.0559 22.3312 8.46882 21.7254 6.89489 21.1459L5.85439 20.7573C5.90708 20.6783 5.95317 20.5927 6.00585 20.5202C7.46824 20.674 8.906 21.008 10.2864 21.5146C13.6579 22.6294 16.9458 23.9829 20.1251 25.5647L21.1392 26.0652Z" fill="#8C6742"/>
</g>
<g style="mix-blend-mode:multiply">
<path d="M43.9644 44.1225C43.6614 44.004 43.3585 43.8788 43.0621 43.7471C41.8758 43.256 40.7363 42.6587 39.6575 41.9625C38.8498 41.453 38.1331 40.8119 37.537 40.0659C38.0243 40.3161 38.505 40.5927 38.9792 40.8759C40.6782 41.9098 42.2917 43.1083 43.9644 44.1225Z" fill="#8C6742"/>
</g>
<g style="mix-blend-mode:multiply">
<path d="M47.3033 43.0161C47.9618 43.3059 48.6204 43.5956 49.2789 43.8986C49.9374 44.2015 50.6948 44.5571 51.406 44.9127L53.9282 46.0981C53.7241 46.0981 53.5199 46.0322 53.3158 45.9861C51.9887 45.7224 50.685 45.3524 49.4172 44.8798C48.1248 44.3988 46.8663 43.8311 45.6503 43.1807C44.4649 42.5499 43.3211 41.8438 42.2259 41.0668C41.4971 40.5531 40.7925 40.0066 40.112 39.427C41.1569 40.0855 42.2387 40.6835 43.352 41.2183C44.6559 41.8505 45.9796 42.43 47.3033 43.0161Z" fill="#8C6742"/>
</g>
<g style="mix-blend-mode:multiply">
<path d="M70.8397 49.9045C71.4982 49.8386 72.1107 49.7728 72.7494 49.6938C73.3882 49.6147 74.0139 49.5489 74.6329 49.4303C75.8153 49.1949 76.9794 48.8758 78.1166 48.4755C79.0122 48.1791 79.8947 47.8564 80.7837 47.5535C79.9038 48.1335 78.9789 48.6422 78.0178 49.0747C76.8404 49.5971 75.6138 50.0008 74.3563 50.2799C73.0889 50.5613 71.7955 50.7092 70.4972 50.7211C69.3052 50.7345 68.1145 50.6353 66.9411 50.4248H67.0004C68.2713 50.1877 69.5555 50.0494 70.8397 49.9045Z" fill="#8C6742"/>
</g>
<g style="mix-blend-mode:multiply">
<path d="M21.0207 12.0975C21.4865 13.707 22.0631 15.2825 22.7461 16.8126C23.3651 18.268 24.0632 19.7036 24.7217 21.1327C24.9193 21.5739 25.1234 22.0085 25.3078 22.4498C25.8483 23.7316 26.4549 24.9846 27.1254 26.2035C28.4425 28.6664 29.9045 31.0635 31.0767 33.5989C30.2842 33.1629 29.577 32.5873 28.9891 31.8999C28.403 31.2413 27.8696 30.5367 27.323 29.8518C27.0069 29.4567 26.6644 29.0747 26.3549 28.6994C25.9268 27.5733 25.3407 26.4932 24.8073 25.4066C23.9249 23.6352 23.1083 21.8242 22.2522 20.0395C21.3961 18.2548 20.5531 16.2726 19.7563 14.3628C19.3216 13.3223 18.5314 11.867 19.5258 10.8989C19.8537 10.5723 20.2667 10.3442 20.7178 10.2404C20.7497 10.8687 20.8512 11.4915 21.0207 12.0975Z" fill="#8C6742"/>
</g>
<g style="mix-blend-mode:multiply">
<path d="M21.5016 29.7464C25.5845 32.0777 29.0485 35.3638 32.6244 38.3866C36.1559 41.4697 39.9754 44.2065 44.0304 46.5591C52.0976 51.0833 61.4423 53.6055 70.7146 53.1445C79.4667 52.7165 87.7314 49.6674 95.9764 46.8554C103.622 44.2476 111.439 41.8571 119.598 41.9427C119.598 42.0481 119.598 42.1468 119.552 42.2456C119.348 43.6769 119.071 45.0968 118.723 46.4998L118.472 46.6052C117.025 47.1486 115.536 47.5758 114.021 47.8828C111.959 48.3503 109.918 48.8837 107.85 49.3316C105.216 49.8979 102.582 50.4247 100.026 51.1557C97.4713 51.8867 95.0215 52.8087 92.519 53.6384C88.1653 55.0638 83.6579 55.968 79.0913 56.3319C70.4703 57.0747 61.7863 56.1992 53.4871 53.7504C49.1515 52.4739 44.9586 50.7548 40.9747 48.6203C39.9672 47.9618 38.9991 47.3032 38.0113 46.6447C35.8529 45.1098 33.7777 43.4611 31.7946 41.7056C29.8848 40.0197 28.0739 38.2219 26.2168 36.4834C23.8476 34.1533 21.2952 32.0171 18.5842 30.0955C15.5549 28.0606 12.3083 27.0201 8.92338 25.7425C7.61469 25.2753 6.34977 24.6935 5.14333 24.0039C5.14333 23.9117 5.14333 23.8196 5.14333 23.7274C10.7739 25.2749 16.3979 26.8357 21.5016 29.7464Z" fill="#8C6742"/>
</g>
<path d="M12.868 19.7563C12.6848 20.329 12.4374 20.8791 12.1304 21.3961C11.7476 22.01 11.3065 22.5856 10.8133 23.1149C10.3459 23.6311 9.80435 24.0749 9.20648 24.432L9.50284 24.5439C10.1153 24.7876 10.9846 25.2025 11.0899 25.9203C11.1156 26.093 11.1016 26.2694 11.0492 26.4359C10.9967 26.6025 10.907 26.7549 10.787 26.8818C10.687 26.9723 10.569 27.0408 10.4408 27.0828C10.3126 27.1248 10.177 27.1393 10.0428 27.1254C9.72623 27.0919 9.41712 27.0074 9.12746 26.8752C8.7884 26.726 8.45854 26.5566 8.13964 26.3681L7.4811 25.9466C7.51643 26.0288 7.53465 26.1173 7.53465 26.2068C7.53465 26.2962 7.51643 26.3847 7.4811 26.4669C7.4811 26.6184 7.4811 26.7764 7.44817 26.9279C7.40226 27.2279 7.32952 27.5233 7.23085 27.8103C7.03719 28.5162 6.72547 29.1841 6.30889 29.786C6.22453 29.9236 6.1114 30.0413 5.97727 30.1311C5.84314 30.2209 5.69118 30.2806 5.53181 30.3062C5.3926 30.3075 5.25769 30.2581 5.15225 30.1673C5.04681 30.0764 4.97807 29.9502 4.95887 29.8123C4.8865 29.4559 4.8865 29.0887 4.95887 28.7323C5.02008 28.3317 5.10809 27.9357 5.2223 27.5469C5.2684 27.3691 5.32107 27.1979 5.38034 27.0267C4.70988 27.5974 3.94264 28.0435 3.11495 28.3438C2.49287 28.5244 1.84593 28.6044 1.19859 28.5808C0.770538 28.5808 0.105404 28.5413 3.62396e-05 28.0211C-0.0095644 27.8132 0.0287962 27.6058 0.112159 27.4151C0.195521 27.2244 0.321647 27.0554 0.480771 26.9213C0.829274 26.5589 1.22071 26.2405 1.6464 25.973C2.15926 25.6354 2.71234 25.3633 3.29276 25.163C3.12812 25.1103 2.97007 25.0576 2.81202 24.9918C2.04915 24.6595 1.36478 24.1704 0.803461 23.5561C0.526446 23.2923 0.331985 22.9537 0.243695 22.5815C0.223741 22.4056 0.261019 22.228 0.349989 22.0749C0.438959 21.9219 0.574881 21.8016 0.737603 21.732C1.11259 21.5838 1.52394 21.5539 1.9164 21.6464C2.30607 21.7125 2.6894 21.8116 3.06226 21.9427C3.51037 22.0947 3.95003 22.2706 4.37935 22.4695C4.59092 22.5643 4.79754 22.6698 4.99839 22.7856L4.89303 22.509C4.65101 21.8652 4.45515 21.205 4.30692 20.5334C4.15056 19.8984 4.08843 19.2438 4.12252 18.5907C4.12209 18.0338 4.33679 17.4982 4.7218 17.0958C4.83261 16.9775 4.98051 16.9006 5.141 16.8779C5.30148 16.8551 5.46491 16.8879 5.60425 16.9707C5.91956 17.2045 6.16355 17.5214 6.30889 17.8861C6.77892 18.9199 7.08976 20.019 7.23085 21.1459L7.30988 21.699C7.51312 20.9781 7.78662 20.2789 8.12647 19.6115C8.78502 18.2944 9.93747 16.8521 11.5641 16.7336C11.9417 16.6836 12.3253 16.7575 12.6573 16.9443C12.9068 17.1201 13.0808 17.3835 13.1446 17.6819C13.2363 18.3857 13.1409 19.1012 12.868 19.7563Z" fill="#5DA33C"/>
<g style="mix-blend-mode:multiply">
<path d="M12.9865 18.8936C12.7165 19.46 12.4268 20.0132 12.1041 20.5466C11.7921 21.0662 11.4445 21.5635 11.0636 22.0349C10.7504 22.4399 10.38 22.797 9.9638 23.0951C9.66165 23.3318 9.28729 23.4574 8.90354 23.4508C8.69647 23.4246 8.49989 23.3445 8.33347 23.2186C8.16705 23.0926 8.03662 22.9251 7.95524 22.7329C7.83586 22.388 7.81085 22.0174 7.8828 21.6595C7.95398 21.2704 8.06203 20.8889 8.20549 20.5202C8.33061 20.1975 8.47549 19.8617 8.6072 19.5588C8.8118 19.0836 9.05403 18.6256 9.33159 18.189C9.52257 17.8926 9.72672 17.6029 9.93087 17.3197C9.16315 17.9277 8.54385 18.7024 8.11987 19.5851C7.78002 20.2526 7.50651 20.9518 7.30327 21.6727L7.22425 21.1195C7.08316 19.9926 6.77233 18.8936 6.30229 17.8597C6.17018 17.5506 5.97504 17.2725 5.72935 17.0431L5.76886 17.1485C6.10315 18.2671 6.32379 19.4166 6.42741 20.5795C6.55046 21.64 6.52831 22.7123 6.36156 23.7669C6.35668 23.7737 6.35025 23.7792 6.34281 23.783C6.33537 23.7868 6.32712 23.7888 6.31875 23.7888C6.31039 23.7888 6.30214 23.7868 6.2947 23.783C6.28725 23.7792 6.28082 23.7737 6.27595 23.7669C5.92331 23.5201 5.64901 23.1772 5.48569 22.779C5.15557 22.0168 4.89762 21.2253 4.7152 20.4149C4.50328 19.61 4.33402 18.7944 4.20812 17.9717C4.16136 18.1686 4.13053 18.369 4.11592 18.5709C4.08183 19.2241 4.14395 19.8786 4.30031 20.5136C4.44854 21.1853 4.6444 21.8455 4.88642 22.4893L4.99179 22.7659C4.79094 22.6501 4.58432 22.5446 4.37275 22.4498C3.94343 22.2508 3.50377 22.0749 3.05566 21.9229C2.68279 21.7919 2.29945 21.6927 1.90979 21.6266C1.51733 21.5342 1.10599 21.564 0.731001 21.7122C0.649408 21.7488 0.5739 21.7976 0.507098 21.8571C0.643198 21.8571 0.781486 21.8571 0.921975 21.8571C1.81063 21.9771 2.66363 22.2847 3.42445 22.7593C3.79585 22.972 4.13883 23.2309 4.44519 23.5298C4.70099 23.7699 4.89912 24.0649 5.02471 24.3925C5.03123 24.4022 5.0347 24.4137 5.0347 24.4254C5.0347 24.4371 5.03123 24.4486 5.02471 24.4583C4.67238 24.6201 4.28559 24.6925 3.8986 24.6691C3.08412 24.6183 2.28757 24.4079 1.55418 24.05L1.09978 23.8327C1.59639 24.3332 2.18139 24.7373 2.82518 25.0247C2.98323 25.0905 3.14128 25.1432 3.30591 25.1959C2.7255 25.3962 2.17242 25.6683 1.65955 26.0059C1.38719 26.1835 1.12551 26.3771 0.875882 26.5854L1.11296 26.4669C1.53824 26.2605 1.97852 26.0866 2.43005 25.9466C2.84863 25.8135 3.27845 25.7187 3.71421 25.6635C4.05864 25.5976 4.41302 25.6044 4.75471 25.6832C4.7599 25.6832 4.76504 25.6842 4.76983 25.6862C4.77463 25.6882 4.77898 25.6911 4.78264 25.6948C4.78631 25.6985 4.78923 25.7028 4.79122 25.7076C4.7932 25.7124 4.79422 25.7175 4.79422 25.7227C4.8139 25.9034 4.79597 26.0862 4.74157 26.2596C4.68717 26.433 4.59747 26.5933 4.47812 26.7303C4.21541 27.0504 3.90697 27.3299 3.56275 27.5601C2.89869 28.0209 2.16495 28.3723 1.38955 28.6006C1.98624 28.6078 2.5808 28.5279 3.15445 28.3635C3.98214 28.0632 4.74937 27.6171 5.41984 27.0464C5.36057 27.2176 5.30789 27.3889 5.26179 27.5667C5.14758 27.9554 5.05957 28.3515 4.99837 28.752C4.96169 28.9586 4.94187 29.1679 4.9391 29.3777C5.05056 29.0183 5.18473 28.6663 5.34081 28.324C5.55352 27.7999 5.86167 27.3198 6.24961 26.9081C6.25416 26.8999 6.26084 26.893 6.26895 26.8882C6.27706 26.8835 6.28629 26.8809 6.2957 26.8809C6.30511 26.8809 6.31435 26.8835 6.32246 26.8882C6.33057 26.893 6.33725 26.8999 6.3418 26.9081C6.40109 27.2253 6.43412 27.5469 6.44058 27.8696C6.44605 28.4854 6.39536 29.1004 6.28912 29.7069C6.29225 29.7662 6.29225 29.8255 6.28912 29.8847C6.32121 29.8527 6.3499 29.8173 6.37473 29.7794C6.79131 29.1776 7.10303 28.5096 7.29669 27.8037C7.37092 27.5406 7.42378 27.2719 7.45475 27.0003C7.45475 26.8488 7.45474 26.6908 7.48767 26.5393C7.523 26.4572 7.54122 26.3686 7.54122 26.2792C7.54122 26.1898 7.523 26.1012 7.48767 26.0191L8.14621 26.4405C8.4651 26.6291 8.79496 26.7984 9.13403 26.9476C9.30525 27.0135 9.47648 27.0793 9.65428 27.132C9.23876 26.8699 8.84658 26.5724 8.48207 26.243C8.00056 25.8357 7.63487 25.3087 7.42182 24.7152C7.41917 24.7051 7.4192 24.6946 7.4219 24.6846C7.4246 24.6746 7.42988 24.6654 7.43721 24.6581C7.44454 24.6508 7.45367 24.6455 7.46368 24.6428C7.47369 24.6401 7.48423 24.6401 7.49426 24.6427C7.85536 24.6989 8.20887 24.7961 8.54792 24.9325C9.21687 25.1959 9.84624 25.5505 10.4182 25.9862C10.6481 26.146 10.868 26.3197 11.0767 26.5064C11.129 26.3404 11.1425 26.1647 11.1163 25.9927C11.0109 25.2486 10.1416 24.86 9.52916 24.6164L9.23281 24.5044C9.83068 24.1474 10.3722 23.7035 10.8397 23.1873C11.3329 22.658 11.7739 22.0824 12.1568 21.4685C12.4596 20.9274 12.6983 20.3528 12.868 19.7563C13.0216 19.3303 13.1276 18.8886 13.1841 18.4392L12.9865 18.8936Z" fill="#B5D338"/>
</g>
<path d="M22.2787 11.8538C22.0967 12.4269 21.8492 12.9772 21.5411 13.4936C21.1599 14.1086 20.7187 14.6843 20.224 15.2124C19.7594 15.7425 19.2177 16.1998 18.6171 16.569L18.9135 16.6743C19.5259 16.918 20.3952 17.3329 20.5006 18.0507C20.5249 18.2244 20.5103 18.4014 20.4579 18.5688C20.4055 18.7362 20.3166 18.8898 20.1976 19.0187C20.0971 19.1081 19.9789 19.1754 19.8507 19.2162C19.7225 19.2571 19.5872 19.2706 19.4535 19.2558C19.1369 19.2222 18.8278 19.1377 18.5381 19.0056C18.1978 18.859 17.8678 18.6896 17.5503 18.4985C17.3264 18.3668 17.1025 18.2219 16.8918 18.077C16.9271 18.1592 16.9453 18.2477 16.9453 18.3372C16.9453 18.4266 16.9271 18.5151 16.8918 18.5973C16.8918 18.7553 16.8918 18.9068 16.8588 19.0583C16.8129 19.3583 16.7402 19.6536 16.6415 19.9407C16.4473 20.6463 16.1356 21.3142 15.7195 21.9163C15.6342 22.0524 15.5206 22.1687 15.3866 22.2573C15.2526 22.3459 15.1011 22.4048 14.9425 22.43C14.8035 22.4318 14.6685 22.3835 14.5621 22.2941C14.4557 22.2046 14.385 22.0799 14.3629 21.9427C14.2938 21.5838 14.2938 21.215 14.3629 20.8561C14.4241 20.4555 14.5122 20.0595 14.6264 19.6707C14.6725 19.4995 14.7251 19.3217 14.7844 19.1505C14.1156 19.7235 13.3479 20.1699 12.519 20.4675C11.8969 20.6478 11.25 20.7279 10.6027 20.7046C10.1746 20.7046 9.50288 20.6651 9.4041 20.1449C9.39138 19.9366 9.42833 19.7282 9.51191 19.537C9.59549 19.3458 9.72331 19.1772 9.88484 19.0451C10.2354 18.6849 10.6265 18.3667 11.0505 18.0968C11.5633 17.7592 12.1164 17.4871 12.6968 17.2868C12.5332 17.2396 12.3727 17.1824 12.2161 17.1156C11.4394 16.7766 10.7468 16.2707 10.1878 15.6338C9.91185 15.3718 9.71747 15.0356 9.628 14.6658C9.60089 14.4839 9.63545 14.2982 9.72616 14.1383C9.81687 13.9783 9.95851 13.8534 10.1285 13.7833C10.5145 13.6329 10.937 13.603 11.3402 13.6977C11.7301 13.7661 12.1134 13.8674 12.4861 14.0006C12.9342 14.1526 13.3739 14.3285 13.8032 14.5275C14.0159 14.6174 14.2227 14.7208 14.4222 14.837C14.3893 14.7448 14.3498 14.6526 14.3168 14.567C14.0692 13.9251 13.8732 13.2645 13.7307 12.5914C13.574 11.9564 13.5119 11.3018 13.5464 10.6486C13.5475 10.0933 13.7593 9.55902 14.139 9.15375C14.2519 9.03858 14.4001 8.96437 14.5599 8.9429C14.7198 8.92143 14.8822 8.95392 15.0215 9.03521C15.3371 9.26755 15.583 9.58184 15.7327 9.94401C16.1809 10.971 16.476 12.0582 16.6086 13.1709C16.6086 13.3553 16.6613 13.5397 16.681 13.724C16.8894 13.0039 17.165 12.305 17.5042 11.6365C18.1627 10.3194 19.3152 8.87716 20.9418 8.75863C21.3173 8.70862 21.6988 8.78262 22.0284 8.96936C22.2818 9.14425 22.4567 9.41134 22.5157 9.71352C22.6364 10.4351 22.5543 11.1761 22.2787 11.8538Z" fill="#B5D338"/>
<g style="mix-blend-mode:multiply">
<path d="M22.3972 10.9714C22.1271 11.5377 21.8308 12.0909 21.5081 12.6243C21.1992 13.1464 20.8537 13.6459 20.4742 14.1192C20.1578 14.5212 19.7878 14.878 19.3744 15.1795C19.0724 15.4157 18.6975 15.5392 18.3142 15.5285C18.1059 15.5034 17.908 15.4239 17.7403 15.2978C17.5727 15.1718 17.4412 15.0038 17.3593 14.8107C17.2423 14.4673 17.2196 14.0989 17.2934 13.7438C17.3607 13.3538 17.4688 12.9719 17.6161 12.6045C17.7347 12.2753 17.8861 11.946 18.0178 11.6365C18.2198 11.1601 18.4622 10.7018 18.7422 10.2667C18.9332 9.97037 19.1308 9.68061 19.3415 9.39744C18.5716 10.0032 17.9519 10.7785 17.5305 11.6628C17.1913 12.3314 16.9157 13.0303 16.7073 13.7504C16.7073 13.566 16.6612 13.3816 16.6349 13.1972C16.4908 12.071 16.1801 10.9724 15.7129 9.93744C15.5784 9.62973 15.3836 9.35207 15.14 9.12085C15.1429 9.15811 15.1429 9.19554 15.14 9.2328C15.4773 10.3507 15.698 11.5005 15.7985 12.6638C15.9217 13.7221 15.8995 14.7923 15.7327 15.8446C15.7307 15.8535 15.7267 15.8618 15.721 15.8689C15.7152 15.876 15.7079 15.8817 15.6997 15.8855C15.6914 15.8894 15.6823 15.8912 15.6732 15.891C15.6641 15.8907 15.6551 15.8884 15.6471 15.8841C15.294 15.635 15.0197 15.2899 14.8568 14.8897C14.5394 14.1218 14.2947 13.3259 14.1258 12.5124C13.9139 11.7097 13.7447 10.8963 13.6188 10.0757C13.5688 10.2698 13.538 10.4683 13.5266 10.6684C13.4921 11.3215 13.5542 11.9762 13.711 12.6111C13.8534 13.2842 14.0494 13.9449 14.2971 14.5868C14.2971 14.6724 14.3695 14.7646 14.4024 14.8568C14.2029 14.7405 13.9961 14.6371 13.7834 14.5473C13.3541 14.3483 12.9144 14.1724 12.4663 14.0204C12.1006 13.8816 11.7239 13.7736 11.3402 13.6977C10.9474 13.6098 10.5374 13.6396 10.1614 13.7833C10.0775 13.8221 9.99977 13.8731 9.93091 13.9348C10.0711 13.9215 10.2122 13.9215 10.3524 13.9348C11.2411 14.0505 12.0946 14.3559 12.8548 14.8304C13.2265 15.0454 13.5694 15.3065 13.8756 15.6075C14.1274 15.8444 14.3193 16.1379 14.4354 16.4636C14.4428 16.473 14.4469 16.4846 14.4469 16.4965C14.4469 16.5085 14.4428 16.5201 14.4354 16.5295C14.0834 16.6851 13.7003 16.7572 13.3158 16.7402C12.5015 16.684 11.7055 16.4716 10.9714 16.1146C10.8177 16.0487 10.6663 15.9763 10.517 15.8973C11.0071 16.4109 11.5904 16.8266 12.2358 17.1222C12.3924 17.189 12.553 17.2462 12.7165 17.2934C12.1361 17.4937 11.5831 17.7658 11.0702 18.1034C10.7977 18.2833 10.5361 18.479 10.2865 18.6895L10.517 18.571C10.9427 18.3638 11.3829 18.1877 11.8341 18.0441C12.2642 17.9122 12.7049 17.8174 13.1512 17.761C13.4816 17.7058 13.8196 17.717 14.1456 17.7939C14.1456 17.7939 14.1851 17.7939 14.1851 17.8334C14.2039 18.0145 14.1849 18.1976 14.1294 18.371C14.0738 18.5444 13.9829 18.7044 13.8624 18.841C13.6039 19.1644 13.2974 19.4465 12.9536 19.6773C12.5685 19.9335 12.1607 20.154 11.7353 20.3359C11.4274 20.4805 11.108 20.5995 10.7804 20.6915C11.3775 20.7048 11.973 20.6248 12.5453 20.4544C13.3743 20.1567 14.1419 19.7104 14.8107 19.1373C14.7515 19.3085 14.6988 19.4863 14.6527 19.6576C14.5385 20.0464 14.4505 20.4424 14.3893 20.8429C14.3511 21.0604 14.3313 21.2807 14.33 21.5015C14.441 21.1407 14.5729 20.7867 14.7251 20.4412C14.9435 19.9201 15.2511 19.441 15.6339 19.0254C15.6668 19.0254 15.7261 19.0254 15.7327 19.0254C15.792 19.3426 15.825 19.6642 15.8315 19.9868C15.8337 20.6047 15.783 21.2216 15.68 21.8308C15.68 21.89 15.68 21.9493 15.6471 22.0086L15.7327 21.9032C16.1487 21.3011 16.4604 20.6332 16.6547 19.9276C16.7533 19.6405 16.826 19.3452 16.872 19.0451C16.872 18.8936 16.872 18.7422 16.9049 18.5841C16.9402 18.502 16.9585 18.4135 16.9585 18.324C16.9585 18.2346 16.9402 18.1461 16.9049 18.0639C17.1288 18.2088 17.3527 18.3536 17.5634 18.4853C17.8809 18.6764 18.2109 18.8458 18.5513 18.9924C18.7177 19.0665 18.8894 19.1282 19.0649 19.1768C18.6597 18.9196 18.2784 18.6264 17.9256 18.301C17.4441 17.8937 17.0784 17.3667 16.8654 16.7731C16.8654 16.727 16.8654 16.7007 16.9378 16.7007C17.2987 16.7577 17.6522 16.8549 17.9915 16.9905C18.6585 17.2579 19.2874 17.6122 19.8618 18.0441C20.0791 18.2088 20.2964 18.38 20.5203 18.5644C20.5695 18.3979 20.583 18.2228 20.5598 18.0507C20.4544 17.3066 19.5852 16.918 18.9727 16.6744L18.6764 16.569C19.277 16.1999 19.8186 15.7426 20.2832 15.2124C20.778 14.6844 21.2191 14.1086 21.6003 13.4936C21.888 12.9745 22.1155 12.4244 22.2786 11.8538C22.4307 11.4277 22.5346 10.9859 22.5881 10.5367C22.5355 10.6882 22.463 10.8331 22.3972 10.9714Z" fill="#B5D338"/>
</g>
<path d="M14.185 11.8538C14.0054 12.4267 13.7601 12.977 13.4541 13.4936C13.0726 14.1084 12.6315 14.6842 12.137 15.2124C11.6747 15.7424 11.1352 16.1997 10.5367 16.569L10.8265 16.6744C11.4455 16.918 12.3082 17.3329 12.4201 18.0507C12.4431 18.2249 12.4272 18.402 12.3737 18.5694C12.3202 18.7367 12.2304 18.8902 12.1106 19.0188C12.0103 19.1085 11.8921 19.176 11.7639 19.2169C11.6356 19.2577 11.5002 19.271 11.3665 19.2558C11.052 19.2222 10.745 19.1377 10.4577 19.0056C10.1167 18.8604 9.7866 18.6909 9.46986 18.4985C9.23937 18.3668 9.01546 18.2219 8.81131 18.0771C8.84664 18.1592 8.86486 18.2477 8.86486 18.3372C8.86486 18.4266 8.84664 18.5151 8.81131 18.5973C8.81042 18.7515 8.79942 18.9055 8.77838 19.0583C8.73247 19.3583 8.65974 19.6537 8.56106 19.9407C8.36908 20.646 8.05962 21.3139 7.64569 21.9164C7.5603 22.0525 7.44678 22.1687 7.31275 22.2573C7.17871 22.3459 7.02728 22.4048 6.86861 22.43C6.72927 22.4332 6.59355 22.3855 6.48687 22.2958C6.3802 22.206 6.30988 22.0805 6.28909 21.9427C6.21993 21.5838 6.21993 21.215 6.28909 20.8561C6.35658 20.4567 6.4445 20.0611 6.5525 19.6707C6.60518 19.4995 6.65787 19.3217 6.71714 19.1505C6.04595 19.7237 5.27609 20.17 4.44516 20.4676C3.82318 20.6487 3.17615 20.7287 2.52879 20.7046C2.10732 20.7046 1.43561 20.6651 1.33024 20.1449C1.32212 19.9372 1.36116 19.7303 1.44442 19.5398C1.52768 19.3494 1.653 19.1802 1.81098 19.0451C2.16385 18.6849 2.55719 18.3667 2.98319 18.0968C3.49371 17.7592 4.04462 17.4871 4.62297 17.2868C4.45972 17.2385 4.29924 17.1814 4.14223 17.1156C3.36754 16.7764 2.67722 16.2704 2.1205 15.6339C1.84531 15.3701 1.64918 15.0349 1.55415 14.6658C1.53046 14.4843 1.56648 14.3 1.65677 14.1408C1.74707 13.9816 1.88672 13.8562 2.05464 13.7833C2.4307 13.64 2.8406 13.6102 3.23344 13.6977C3.6256 13.7653 4.01119 13.8666 4.38589 14.0007C4.83357 14.1538 5.27317 14.3297 5.70298 14.5275C5.91508 14.6187 6.12177 14.7221 6.32201 14.837C6.2825 14.7448 6.24957 14.6526 6.21665 14.567C5.96983 13.9243 5.77171 13.2639 5.62396 12.5914C5.47377 11.9553 5.41172 11.3016 5.43956 10.6487C5.44636 10.0932 5.66003 9.56015 6.03884 9.15377C6.15112 9.03758 6.29932 8.96266 6.45946 8.94115C6.6196 8.91964 6.78232 8.95279 6.92128 9.03524C7.23502 9.26947 7.48055 9.58319 7.63251 9.94403C8.09209 10.9692 8.3983 12.0565 8.54131 13.1709C8.57423 13.3553 8.59399 13.5397 8.62033 13.7241C8.82872 13.004 9.10433 12.305 9.44351 11.6365C10.1021 10.3194 11.2545 8.87718 12.8745 8.75865C13.2522 8.70766 13.6361 8.78167 13.9677 8.96938C14.2191 9.14621 14.3934 9.41242 14.455 9.71354C14.5653 10.4382 14.4718 11.1792 14.185 11.8538Z" fill="#B5D338"/>
<g style="mix-blend-mode:multiply">
<path d="M14.3037 10.9714C14.0396 11.5379 13.745 12.0897 13.4212 12.6243C13.11 13.1465 12.7623 13.646 12.3807 14.1192C12.0643 14.5212 11.6943 14.878 11.2809 15.1795C10.982 15.4168 10.6087 15.5404 10.2273 15.5285C10.019 15.5034 9.82107 15.4239 9.65341 15.2978C9.48575 15.1718 9.35431 15.0038 9.27238 14.8107C9.15281 14.4679 9.13002 14.0987 9.20652 13.7438C9.27151 13.354 9.37747 12.9721 9.52262 12.6045C9.64775 12.2753 9.79263 11.946 9.93092 11.6365C10.1306 11.1602 10.3708 10.702 10.6487 10.2667C10.8397 9.97037 11.0439 9.68061 11.2546 9.39744C10.4847 10.0032 9.86498 10.7785 9.44359 11.6628C9.10441 12.3314 8.82881 13.0303 8.62041 13.7504C8.62041 13.566 8.57432 13.3816 8.54139 13.1972C8.39947 12.0713 8.09097 10.9727 7.62601 9.93744C7.48879 9.63124 7.29433 9.35407 7.05308 9.12085C7.05017 9.15811 7.05017 9.19554 7.05308 9.2328C7.39367 10.3499 7.61442 11.5 7.71163 12.6638C7.83692 13.7218 7.81697 14.792 7.65235 15.8446C7.64942 15.8529 7.64486 15.8605 7.63894 15.867C7.63301 15.8735 7.62585 15.8787 7.61787 15.8824C7.6099 15.8861 7.60126 15.8881 7.59248 15.8884C7.5837 15.8887 7.57495 15.8872 7.56675 15.8841C7.21018 15.6387 6.93501 15.2925 6.7765 14.8897C6.454 14.1231 6.20697 13.3269 6.03892 12.5124C5.82701 11.7097 5.65775 10.8963 5.53184 10.0757C5.48296 10.2703 5.44993 10.4685 5.43306 10.6684C5.40522 11.3214 5.46727 11.9751 5.61745 12.6111C5.7652 13.2836 5.96333 13.944 6.21015 14.5868C6.21015 14.6724 6.27599 14.7646 6.31551 14.8568C6.11526 14.7418 5.90858 14.6385 5.69647 14.5473C5.26666 14.3494 4.82706 14.1736 4.37938 14.0204C4.00468 13.8864 3.6191 13.785 3.22693 13.7175C2.83409 13.63 2.42421 13.6597 2.04814 13.8031C1.96627 13.842 1.89078 13.893 1.82424 13.9546C1.96222 13.9415 2.10113 13.9415 2.23911 13.9546C3.13244 14.0682 3.99062 14.3737 4.75476 14.8502C5.1243 15.0653 5.46507 15.3264 5.76891 15.6273C6.02822 15.8644 6.22695 16.1602 6.34844 16.49C6.35422 16.5 6.35726 16.5113 6.35726 16.5229C6.35726 16.5344 6.35422 16.5458 6.34844 16.5558C5.99628 16.7107 5.61329 16.7828 5.22891 16.7665C4.4144 16.7112 3.6183 16.4987 2.88449 16.1409C2.73083 16.0751 2.57937 16.0026 2.4301 15.9236C2.91896 16.4289 3.5002 16.8358 4.14232 17.1222C4.29932 17.188 4.4598 17.2451 4.62305 17.2934C4.0447 17.4937 3.4938 17.7658 2.98327 18.1034C2.7097 18.2817 2.44793 18.4774 2.1996 18.6895L2.4301 18.571C2.85618 18.3646 3.2963 18.1885 3.74719 18.0441C4.17735 17.9124 4.61799 17.8177 5.06428 17.7609C5.39806 17.6999 5.74072 17.7066 6.07185 17.7807C6.08939 17.7886 6.10344 17.8027 6.11136 17.8202C6.12819 18.0012 6.10828 18.1838 6.05283 18.3569C5.99738 18.5301 5.90754 18.6902 5.78868 18.8278C5.52947 19.153 5.22053 19.4353 4.87329 19.6641C4.49043 19.9203 4.08481 20.1408 3.66157 20.3227C3.35138 20.4674 3.02981 20.5863 2.7001 20.6783C3.29718 20.6921 3.89272 20.6121 4.465 20.4412C5.29593 20.1436 6.06579 19.6973 6.73697 19.1241C6.67771 19.2954 6.62502 19.4732 6.57234 19.6444C6.46434 20.0347 6.37642 20.4304 6.30892 20.8298C6.30892 21.0339 6.25624 21.2446 6.24966 21.4883C6.3629 21.1274 6.49703 20.7734 6.65137 20.4281C6.86981 19.9069 7.17732 19.4278 7.56015 19.0122C7.56015 19.0122 7.65236 19.0122 7.65894 19.0122C7.71605 19.3296 7.74688 19.6512 7.75114 19.9737C7.75882 20.5914 7.71033 21.2086 7.60626 21.8176C7.59211 21.8762 7.58112 21.9356 7.57333 21.9954C7.57333 21.9559 7.6326 21.9229 7.65894 21.89C8.07288 21.2876 8.38233 20.6197 8.57432 19.9144C8.67299 19.6273 8.74572 19.332 8.79164 19.0319C8.81267 18.8792 8.82367 18.7252 8.82456 18.571C8.85989 18.4888 8.87812 18.4003 8.87812 18.3108C8.87812 18.2214 8.85989 18.1329 8.82456 18.0507C9.04188 18.1956 9.26578 18.3405 9.4831 18.4722C9.79984 18.6646 10.13 18.834 10.4709 18.9793C10.6369 19.0544 10.8087 19.1161 10.9846 19.1636C10.5676 18.9036 10.1752 18.606 9.81238 18.2746C9.33068 17.8689 8.96679 17.3412 8.75871 16.7468C8.75871 16.7007 8.75871 16.6743 8.83115 16.6743C9.19189 16.7322 9.54521 16.8294 9.88482 16.9641C10.5511 17.2331 11.1798 17.5872 11.7551 18.0178C11.9724 18.1824 12.1831 18.3536 12.4136 18.538C12.4651 18.372 12.4808 18.1969 12.4597 18.0244C12.3478 17.2802 11.4851 16.8917 10.8661 16.648L10.5763 16.5426C11.1748 16.1734 11.7143 15.7161 12.1766 15.186C12.6711 14.6578 13.1122 14.0821 13.4936 13.4672C13.7842 12.9572 14.0162 12.416 14.1851 11.8538C14.3426 11.4289 14.4487 10.9868 14.5012 10.5367C14.4354 10.6882 14.3761 10.8331 14.3037 10.9714Z" fill="#B5D338"/>
</g>
<path d="M24.2608 5.26835C23.9054 5.75163 23.4967 6.19344 23.0425 6.58544C22.4921 7.04496 21.8989 7.45072 21.2711 7.79716C20.6542 8.15181 19.9886 8.41365 19.2954 8.57425C19.381 8.63352 19.4601 8.69937 19.5391 8.76522C20.0462 9.19328 20.7442 9.83865 20.6125 10.5762C20.5783 10.7478 20.5069 10.9099 20.4034 11.0509C20.2998 11.192 20.1667 11.3087 20.0132 11.3928C19.89 11.4483 19.7565 11.4769 19.6214 11.4769C19.4863 11.4769 19.3528 11.4483 19.2296 11.3928C18.9411 11.2617 18.6762 11.0836 18.4459 10.866C18.1705 10.6169 17.9109 10.3507 17.6688 10.0691C17.4976 9.87158 17.333 9.66084 17.1683 9.4567C17.1732 9.54573 17.16 9.63483 17.1294 9.7186C17.0989 9.80237 17.0516 9.87906 16.9905 9.94402C16.9409 10.0905 16.8815 10.2335 16.8127 10.3721C16.6769 10.6448 16.5137 10.903 16.3254 11.1426C15.9179 11.7583 15.4078 12.2996 14.8173 12.7428C14.6935 12.844 14.5498 12.918 14.3954 12.96C14.2411 13.002 14.0797 13.011 13.9217 12.9865C13.7876 12.9427 13.6738 12.8519 13.6012 12.731C13.5287 12.61 13.5022 12.4669 13.5266 12.328C13.5762 11.9654 13.697 11.6162 13.8822 11.3006C14.0824 10.9441 14.3023 10.5989 14.5407 10.2667L14.8568 9.8189C14.0407 10.1417 13.1727 10.3135 12.2951 10.326C11.6487 10.2953 11.0111 10.1642 10.4051 9.93743C10.0034 9.79914 9.37774 9.54889 9.45018 9.02206C9.50287 8.60059 9.91117 8.324 10.2536 8.13302C10.7012 7.90455 11.1742 7.72992 11.6629 7.61277C12.2558 7.45315 12.8665 7.36906 13.4805 7.36252C13.3407 7.26724 13.2065 7.16389 13.0788 7.05301C12.4529 6.48098 11.9586 5.77997 11.63 4.99835C11.4506 4.66111 11.3728 4.27911 11.4061 3.89858C11.445 3.72214 11.5397 3.56289 11.676 3.44432C11.8124 3.32575 11.9832 3.25413 12.1634 3.24004C12.5646 3.22756 12.9606 3.33287 13.3027 3.54297C13.6543 3.73042 13.9873 3.95093 14.2971 4.20151C14.6724 4.49127 15.0346 4.80079 15.3771 5.12347C15.5455 5.27765 15.706 5.4403 15.8578 5.6108C15.8578 5.51202 15.8578 5.41982 15.8578 5.32104C15.8359 4.63311 15.8601 3.94449 15.9303 3.25979C15.974 2.59496 16.116 1.94028 16.3517 1.31709C16.527 0.786245 16.8995 0.343021 17.3922 0.079023C17.5351 0.0025644 17.6999 -0.0227943 17.8591 0.007146C18.0184 0.0370863 18.1627 0.12053 18.2681 0.243659C18.4889 0.560984 18.6208 0.931609 18.65 1.31709C18.7634 2.44512 18.7079 3.58375 18.4854 4.69542C18.4854 4.87981 18.4196 5.0642 18.38 5.2486C18.8031 4.62961 19.2861 4.05388 19.8223 3.5298C20.9023 2.47613 22.4169 1.49489 23.9974 1.89661C24.3709 1.96886 24.7107 2.16072 24.9655 2.4432C25.138 2.6906 25.2109 2.99395 25.1696 3.29272C25.0575 4.0233 24.7426 4.70777 24.2608 5.26835Z" fill="#5DA33C"/>
<g style="mix-blend-mode:multiply">
<path d="M24.6558 4.44516C24.2218 4.89669 23.7646 5.32533 23.2861 5.72932C22.8266 6.12273 22.3403 6.48361 21.8307 6.80933C21.403 7.0929 20.9374 7.31461 20.4477 7.46788C20.0879 7.59652 19.6946 7.59652 19.3348 7.46788C19.1488 7.37621 18.9901 7.23736 18.8745 7.06518C18.759 6.89299 18.6906 6.69351 18.6762 6.48664C18.6716 6.12312 18.7673 5.76535 18.9528 5.45273C19.1348 5.10199 19.3558 4.77284 19.6114 4.4715C19.8287 4.2015 20.0724 3.95125 20.2699 3.68783C20.6227 3.30611 21.0059 2.95372 21.4158 2.63416C21.6924 2.41684 21.9755 2.20611 22.2653 1.97562C21.341 2.3028 20.5048 2.8392 19.8221 3.54295C19.2857 4.06911 18.8026 4.64706 18.3799 5.26834C18.4194 5.08395 18.4523 4.89955 18.4853 4.71516C18.7097 3.59706 18.7652 2.45163 18.6499 1.31707C18.6194 0.983217 18.5232 0.658692 18.3667 0.362183V0.493891C18.3381 1.65839 18.1903 2.81689 17.9255 3.95125C17.7046 4.99393 17.3435 6.00189 16.8521 6.94763C16.8465 6.9545 16.8395 6.96005 16.8315 6.96386C16.8235 6.96766 16.8148 6.96964 16.806 6.96964C16.7971 6.96964 16.7884 6.96766 16.7804 6.96386C16.7725 6.96005 16.7654 6.9545 16.7599 6.94763C16.4979 6.60336 16.3463 6.18778 16.3252 5.75566C16.2539 4.91586 16.2649 4.07109 16.3582 3.23344C16.3991 2.40869 16.4826 1.5866 16.6084 0.77048C16.5046 0.942009 16.4122 1.1202 16.3318 1.3039C16.0909 1.91318 15.94 2.55431 15.884 3.20709C15.8204 3.89223 15.8029 4.58085 15.8313 5.26834C15.8313 5.36712 15.8313 5.45932 15.8313 5.5581C15.6795 5.3876 15.519 5.22495 15.3506 5.07077C15.0081 4.74809 14.6459 4.41223 14.2706 4.14881C13.9608 3.89823 13.6278 3.67772 13.2762 3.49027C12.9342 3.28018 12.5381 3.17486 12.1369 3.18734C12.0464 3.20051 11.958 3.22484 11.8735 3.25978C12.0066 3.30051 12.1365 3.35114 12.262 3.41124C13.0666 3.80896 13.778 4.37225 14.3496 5.06419C14.6332 5.38311 14.8744 5.73725 15.0674 6.11786C15.2368 6.42523 15.3315 6.76812 15.344 7.11885C15.3425 7.132 15.3374 7.14447 15.3292 7.15492C15.3211 7.16537 15.3103 7.17339 15.2979 7.17812C14.9132 7.21529 14.5251 7.16114 14.1652 7.02007C13.4134 6.71403 12.7272 6.26696 12.1435 5.70298C12.0184 5.59102 11.8998 5.47249 11.7813 5.35395C12.0966 5.98995 12.5276 6.56166 13.0523 7.03982C13.1801 7.1507 13.3142 7.25405 13.454 7.34934C12.84 7.35588 12.2293 7.43996 11.6364 7.59958C11.3202 7.67863 11.0099 7.77986 10.7078 7.90251L10.9647 7.863C11.4404 7.79965 11.9206 7.77542 12.4003 7.79056C12.8428 7.79852 13.2837 7.84701 13.7174 7.93544C14.048 7.98909 14.3654 8.10532 14.6525 8.27788C14.6586 8.29493 14.6586 8.31352 14.6525 8.33057C14.6087 8.51051 14.5273 8.67918 14.4139 8.82557C14.3004 8.97195 14.1573 9.09275 13.994 9.18009C13.6451 9.40542 13.2628 9.57432 12.8613 9.68058C12.4139 9.81071 11.9553 9.8989 11.4915 9.944C11.1518 9.97041 10.8105 9.97041 10.4708 9.944C11.0317 10.1462 11.6202 10.2616 12.2159 10.2864C13.0935 10.274 13.9615 10.1022 14.7777 9.77937L14.4616 10.2272C14.2231 10.5594 14.0033 10.9045 13.803 11.2611C13.7041 11.4481 13.6182 11.6417 13.5462 11.8406C13.769 11.5355 14.0086 11.2431 14.264 10.9647C14.6351 10.5379 15.0815 10.1829 15.5811 9.91766C15.5896 9.9126 15.5994 9.91006 15.6093 9.91032C15.6193 9.91058 15.6289 9.91364 15.6372 9.91915C15.6454 9.92465 15.652 9.93238 15.656 9.94144C15.6601 9.9505 15.6615 9.96052 15.6601 9.97034C15.6165 10.2896 15.546 10.6046 15.4494 10.9121C15.2578 11.4994 15.0132 12.0681 14.7184 12.6111L14.6328 12.7692L14.7447 12.6967C15.3353 12.2535 15.8454 11.7122 16.2528 11.0965C16.4411 10.8569 16.6044 10.5987 16.7401 10.326C16.8089 10.1874 16.8683 10.0444 16.9179 9.8979C16.979 9.83294 17.0263 9.75626 17.0568 9.67249C17.0874 9.58872 17.1006 9.49962 17.0957 9.41058C17.2604 9.61473 17.425 9.82546 17.5962 10.023C17.8383 10.3046 18.0979 10.5708 18.3733 10.8199C18.5072 10.9426 18.6503 11.0548 18.8014 11.1557C18.4898 10.7783 18.2142 10.3727 17.9782 9.944C17.6513 9.405 17.4719 8.78955 17.4579 8.15935C17.4585 8.14889 17.4618 8.13876 17.4675 8.13C17.4733 8.12123 17.4812 8.11415 17.4906 8.10946C17.5 8.10478 17.5104 8.10266 17.5209 8.10332C17.5313 8.10399 17.5414 8.10741 17.5501 8.11325C17.8744 8.28117 18.1792 8.48435 18.4589 8.71911C19.0047 9.18566 19.4873 9.72141 19.8946 10.3128C20.0526 10.5433 20.1975 10.7738 20.3292 11.0108C20.4348 10.871 20.5069 10.7088 20.5399 10.5367C20.6716 9.79912 19.9736 9.15375 19.4665 8.72569C19.3875 8.65984 19.3084 8.59399 19.2228 8.53472C19.916 8.37412 20.5817 8.11228 21.1985 7.75763C21.8497 7.42774 22.4673 7.03515 23.0424 6.58543C23.4966 6.19342 23.9052 5.75162 24.2607 5.26834C24.54 4.91536 24.7807 4.53341 24.9785 4.12906L24.6558 4.44516Z" fill="#B5D338"/>
</g>
<path d="M26.9938 16.6085C26.8131 17.1821 26.5655 17.7325 26.2562 18.2483C25.8767 18.8644 25.4354 19.4404 24.9391 19.9671C24.4745 20.4972 23.9328 20.9546 23.3323 21.3237L23.6286 21.429C24.2411 21.6727 25.1103 22.0876 25.2157 22.8054C25.2391 22.9796 25.2235 23.1569 25.17 23.3243C25.1164 23.4917 25.0263 23.6451 24.9062 23.7735C24.8071 23.863 24.6901 23.9305 24.5629 23.9714C24.4358 24.0122 24.3013 24.0256 24.1686 24.0105C23.8507 23.9841 23.5404 23.8993 23.2532 23.7603C22.911 23.6177 22.5807 23.4482 22.2654 23.2532C22.0349 23.1215 21.8176 22.9766 21.6069 22.8317C21.6422 22.9139 21.6604 23.0024 21.6604 23.0919C21.6604 23.1813 21.6422 23.2698 21.6069 23.352C21.6069 23.51 21.6069 23.6615 21.5674 23.813C21.5246 24.1158 21.4518 24.4136 21.35 24.702C21.1575 25.4071 20.8481 26.0749 20.4347 26.6776C20.3493 26.8137 20.2358 26.93 20.1017 27.0186C19.9677 27.1072 19.8163 27.1661 19.6576 27.1913C19.5186 27.1931 19.3836 27.1448 19.2772 27.0554C19.1709 26.9659 19.1002 26.8412 19.0781 26.704C19.0057 26.3454 19.0057 25.976 19.0781 25.6174C19.14 25.2191 19.228 24.8253 19.3415 24.4386C19.3876 24.2608 19.4403 24.083 19.4995 23.9118C18.8308 24.4849 18.0631 24.9312 17.2341 25.2288C16.6085 25.4031 15.9604 25.483 15.3112 25.4659C14.8897 25.4659 14.218 25.4264 14.1126 24.8996C14.1053 24.6913 14.1454 24.4841 14.2298 24.2936C14.3142 24.1031 14.4408 23.9343 14.6 23.7998C14.9489 23.4399 15.3403 23.1236 15.7656 22.8581C16.2775 22.5171 16.8307 22.2427 17.412 22.0415C17.2485 21.9965 17.0879 21.9415 16.9312 21.8769C16.1641 21.5401 15.4789 21.0414 14.9227 20.4149C14.6467 20.1528 14.4524 19.8167 14.3629 19.4468C14.3365 19.2659 14.3706 19.0812 14.4599 18.9217C14.5492 18.7621 14.6887 18.6365 14.8568 18.5644C15.2335 18.4232 15.6434 18.3957 16.0356 18.4853C16.4282 18.5476 16.8141 18.6468 17.188 18.7817C17.6357 18.9349 18.0753 19.1107 18.5051 19.3085C18.7166 19.4011 18.9232 19.5044 19.1242 19.618C19.0847 19.5259 19.0517 19.4402 19.0188 19.348C18.7726 18.7051 18.5745 18.0447 18.4261 17.3724C18.2752 16.7365 18.2153 16.0824 18.2483 15.4297C18.2484 14.8722 18.4603 14.3355 18.841 13.9282C18.9533 13.812 19.1015 13.7371 19.2616 13.7156C19.4218 13.6941 19.5845 13.7272 19.7234 13.8097C20.039 14.042 20.285 14.3563 20.4347 14.7185C20.9018 15.7649 21.2125 16.8743 21.3566 18.0112C21.3566 18.1956 21.4093 18.38 21.4291 18.5644C21.6375 17.8443 21.9131 17.1453 22.2523 16.4768C22.9437 15.1597 24.0633 13.7241 25.6833 13.6055C26.0601 13.5559 26.443 13.6274 26.7765 13.8097C27.0283 13.986 27.2028 14.2525 27.2638 14.5538C27.3582 15.2505 27.265 15.9598 26.9938 16.6085Z" fill="#5DA33C"/>
<g style="mix-blend-mode:multiply">
<path d="M27.1057 15.7326C26.8403 16.2963 26.5457 16.8458 26.2233 17.379C25.9094 17.9026 25.5572 18.4023 25.1696 18.8739C24.8538 19.2742 24.4862 19.6308 24.0764 19.9341C23.7744 20.1704 23.3994 20.2938 23.0161 20.2832C22.8075 20.2594 22.6089 20.1804 22.441 20.0542C22.2732 19.928 22.142 19.7592 22.0613 19.5653C21.9443 19.222 21.9216 18.8536 21.9954 18.4985C22.0604 18.108 22.1686 17.7258 22.3181 17.3592C22.4366 17.03 22.5815 16.7007 22.7198 16.3977C22.9218 15.9192 23.1641 15.4588 23.4442 15.0214C23.6286 14.725 23.8327 14.4353 24.0435 14.1521C23.2736 14.7579 22.6539 15.5331 22.2325 16.4175C21.8933 17.086 21.6177 17.785 21.4093 18.5051C21.4093 18.3207 21.3632 18.1363 21.3369 17.9519C21.1927 16.8151 20.882 15.7056 20.4149 14.6592C20.2779 14.3548 20.0834 14.0797 19.842 13.8492C19.84 13.8843 19.84 13.9195 19.842 13.9545C20.1793 15.0724 20.4 16.2222 20.5005 17.3856C20.6236 18.4461 20.6014 19.5184 20.4346 20.5729C20.4346 20.6058 20.3754 20.619 20.349 20.6058C19.9911 20.362 19.7155 20.0152 19.5588 19.6114C19.2202 18.8382 18.9598 18.0329 18.7817 17.2078C18.5698 16.4051 18.4005 15.5917 18.2746 14.7711C18.2247 14.9675 18.1938 15.1682 18.1824 15.3704C18.1494 16.0231 18.2093 16.6772 18.3602 17.3131C18.5086 17.9854 18.7067 18.6458 18.9529 19.2888C18.9529 19.381 19.0188 19.4666 19.0583 19.5588C18.8573 19.4451 18.6507 19.3418 18.4393 19.2492C18.0094 19.0514 17.5698 18.8756 17.1222 18.7224C16.7482 18.5875 16.3624 18.4883 15.9697 18.4261C15.5775 18.3364 15.1676 18.3639 14.7909 18.5051C14.7099 18.5455 14.6347 18.5964 14.567 18.6566C14.7051 18.6466 14.8438 18.6466 14.9819 18.6566C15.8729 18.7711 16.7288 19.0766 17.491 19.5522C17.8919 19.7901 18.2595 20.0802 18.5841 20.4149C18.8416 20.6522 19.0382 20.9481 19.1571 21.2776C19.1628 21.2876 19.1659 21.2989 19.1659 21.3105C19.1659 21.3221 19.1628 21.3334 19.1571 21.3434C18.8069 21.5046 18.4224 21.577 18.0375 21.5542C17.223 21.4988 16.4269 21.2863 15.6931 20.9285L15.2387 20.7178C15.7401 21.2216 16.3322 21.626 16.9839 21.9098C17.1406 21.9744 17.3011 22.0294 17.4646 22.0744C16.5787 22.3929 15.756 22.8656 15.0346 23.4705L15.2651 23.352C15.6908 23.1448 16.131 22.9687 16.5822 22.8251C17.0121 22.6924 17.4528 22.5977 17.8993 22.542C18.2275 22.4762 18.5655 22.4762 18.8937 22.542C18.903 22.5448 18.9115 22.5499 18.9184 22.5568C18.9252 22.5637 18.9303 22.5722 18.9332 22.5815C18.952 22.7626 18.933 22.9457 18.8774 23.1191C18.8219 23.2925 18.731 23.4525 18.6105 23.5891C18.3519 23.9125 18.0455 24.1946 17.7017 24.4254C17.3164 24.6815 16.9086 24.9019 16.4834 25.084C16.1719 25.2237 15.8505 25.3403 15.5219 25.433C16.1207 25.4461 16.7179 25.3684 17.2934 25.2025C18.1223 24.9048 18.89 24.4585 19.5588 23.8854C19.4995 24.0566 19.4468 24.2344 19.4007 24.4122C19.2873 24.799 19.1993 25.1928 19.1373 25.591C19.0996 25.8085 19.0797 26.0288 19.078 26.2496C19.1891 25.8888 19.321 25.5348 19.4732 25.1893C19.6916 24.6682 19.9991 24.1891 20.382 23.7734C20.4149 23.7734 20.4742 23.7734 20.4808 23.7734C20.5379 24.0909 20.5687 24.4124 20.5729 24.7349C20.5806 25.3527 20.5321 25.9699 20.4281 26.5788C20.4139 26.6375 20.4029 26.6968 20.3951 26.7567L20.4808 26.6513C20.8941 26.0485 21.2036 25.3807 21.3961 24.6757C21.4979 24.3872 21.5707 24.0894 21.6134 23.7866C21.6134 23.6352 21.6464 23.4837 21.653 23.3256C21.6883 23.2435 21.7065 23.155 21.7065 23.0655C21.7065 22.9761 21.6883 22.8876 21.653 22.8054C21.8769 22.9503 22.0942 23.0951 22.3115 23.2269C22.6268 23.4218 22.9571 23.5914 23.2993 23.7339C23.4653 23.8091 23.6371 23.8707 23.813 23.9183C23.391 23.6671 22.994 23.376 22.6276 23.049C22.1423 22.648 21.7757 22.122 21.5673 21.5278C21.5673 21.4751 21.5673 21.4488 21.6398 21.4554C22.0011 21.507 22.3549 21.6021 22.6935 21.7385C23.3605 22.006 23.9893 22.3603 24.5637 22.7922C24.7938 22.9542 25.0138 23.1301 25.2223 23.3191C25.2766 23.1513 25.2923 22.9735 25.2684 22.7988C25.163 22.0546 24.2937 21.6661 23.6813 21.4224L23.3849 21.3171C23.9855 20.948 24.5272 20.4906 24.9918 19.9605C25.488 19.4338 25.9293 18.8578 26.3089 18.2417C26.6182 17.7259 26.8658 17.1755 27.0464 16.6019C27.1986 16.1758 27.3024 15.734 27.356 15.2848C27.2638 15.4385 27.1803 15.5877 27.1057 15.7326Z" fill="#B5D338"/>
</g>
<path d="M30.3786 10.6223C29.9378 11.0319 29.4518 11.3899 28.9298 11.6892C28.3 12.0386 27.6385 12.3275 26.9541 12.5519C26.29 12.7823 25.5954 12.9132 24.8929 12.9404L25.0905 13.1775C25.5053 13.6911 26.0717 14.4551 25.8017 15.1531C25.7331 15.3104 25.6309 15.4509 25.5024 15.5646C25.3739 15.6784 25.222 15.7627 25.0575 15.8117C24.9268 15.8428 24.7909 15.8454 24.6591 15.8192C24.5272 15.7931 24.4026 15.7388 24.2936 15.6602C24.0378 15.4803 23.815 15.2575 23.6351 15.0016C23.4091 14.7094 23.2045 14.4013 23.0226 14.0797C22.8909 13.8492 22.7658 13.6121 22.6473 13.3816C22.636 13.4702 22.6069 13.5556 22.5616 13.6326C22.5163 13.7096 22.4558 13.7766 22.3838 13.8294C22.3059 13.9617 22.2201 14.0893 22.127 14.2114C21.9285 14.451 21.7081 14.6715 21.4685 14.8699C20.951 15.3964 20.3474 15.8307 19.6838 16.1541C19.5433 16.2321 19.3876 16.279 19.2274 16.2915C19.0672 16.304 18.9062 16.2818 18.7553 16.2265C18.6342 16.1584 18.5412 16.0495 18.493 15.9193C18.4448 15.789 18.4443 15.6458 18.4918 15.5153C18.6097 15.1682 18.7955 14.8481 19.0384 14.5736C19.3085 14.2649 19.5966 13.9725 19.9011 13.6977L20.2963 13.3224C19.4253 13.4803 18.533 13.4803 17.6621 13.3224C17.0308 13.1695 16.4267 12.9207 15.8708 12.5848C15.5021 12.3741 14.9423 12.0119 15.1069 11.5048C15.2014 11.3194 15.3373 11.1583 15.504 11.0338C15.6707 10.9093 15.8638 10.8249 16.0684 10.787C16.5504 10.6441 17.0479 10.56 17.5501 10.5367C18.1621 10.4909 18.7774 10.5241 19.3809 10.6355C19.2604 10.5159 19.1482 10.3883 19.045 10.2535C18.5393 9.57546 18.1866 8.79585 18.0111 7.96839C17.9059 7.60039 17.9059 7.21028 18.0111 6.84228C18.0782 6.67174 18.1999 6.52821 18.3571 6.4341C18.5144 6.33998 18.6984 6.30058 18.8804 6.32203C19.2777 6.38373 19.6485 6.55995 19.9472 6.82911C20.2542 7.07786 20.5385 7.35333 20.7968 7.65229C21.1112 8.00443 21.4058 8.37379 21.6792 8.75864C21.8185 8.94283 21.9481 9.13406 22.0677 9.33158L22.1073 9.04182C22.2116 8.36194 22.3657 7.69062 22.5682 7.03326C22.744 6.41062 23.0079 5.81632 23.3519 5.26836C23.6265 4.7837 24.0768 4.42302 24.6097 4.26078C24.7639 4.21436 24.9294 4.22164 25.0789 4.28146C25.2284 4.34128 25.3532 4.45008 25.4329 4.59006C25.5949 4.94881 25.6542 5.34548 25.6041 5.73592C25.503 6.86758 25.2321 7.97758 24.8007 9.02865C24.7348 9.20645 24.669 9.37768 24.5966 9.5489C25.1323 9.02292 25.7166 8.54884 26.3417 8.13303C27.5995 7.30985 29.2722 6.62496 30.7408 7.32302C31.0959 7.46109 31.3949 7.71369 31.5903 8.04083C31.7245 8.31596 31.7458 8.63268 31.6496 8.92328C31.3887 9.59492 30.9492 10.1824 30.3786 10.6223Z" fill="#B5D338"/>
<g style="mix-blend-mode:multiply">
<path d="M30.912 9.91109C30.4049 10.2733 29.8715 10.6091 29.3315 10.9187C28.8046 11.2193 28.2566 11.4812 27.6917 11.7023C27.2205 11.8999 26.724 12.0307 26.2166 12.0909C25.8359 12.146 25.4479 12.0693 25.1168 11.8736C24.9503 11.7476 24.8192 11.5808 24.7361 11.3893C24.653 11.1977 24.6208 10.988 24.6427 10.7804C24.7097 10.4238 24.8712 10.0918 25.1102 9.81889C25.3567 9.5096 25.6373 9.22905 25.9466 8.98254C26.2166 8.75864 26.4998 8.55449 26.7764 8.324C27.1885 8.00306 27.6294 7.72088 28.0934 7.48106C28.403 7.31642 28.752 7.16496 29.0418 7.02008C28.0753 7.16988 27.1561 7.53936 26.3549 8.10009C25.7298 8.51591 25.1455 8.98998 24.6097 9.51596C24.6822 9.34474 24.748 9.17352 24.8139 8.99571C25.2453 7.94464 25.5162 6.83465 25.6173 5.70299C25.6505 5.36825 25.6169 5.03025 25.5185 4.70859V4.82054C25.262 5.9527 24.8913 7.05591 24.4122 8.11326C23.9984 9.09886 23.4511 10.0229 22.7856 10.8594C22.7856 10.8594 22.7131 10.8594 22.6934 10.8594C22.5066 10.4706 22.4379 10.0356 22.4958 9.60816C22.5822 8.76799 22.7521 7.93852 23.0029 7.13203C23.2125 6.32872 23.4653 5.53731 23.7602 4.76127C23.624 4.90791 23.4986 5.06417 23.3848 5.22884C23.0132 5.78929 22.7269 6.40183 22.5353 7.04642C22.3328 7.70378 22.1787 8.3751 22.0744 9.05498L22.0348 9.34474C21.9152 9.14722 21.7855 8.95599 21.6463 8.77181C21.3729 8.38695 21.0783 8.0176 20.7638 7.66545C20.5014 7.36591 20.2127 7.09042 19.9012 6.84227C19.6024 6.57311 19.2317 6.39689 18.8343 6.33519C18.7448 6.32185 18.6538 6.32185 18.5643 6.33519C18.6859 6.40124 18.8026 6.47607 18.9133 6.5591C19.6328 7.09794 20.2279 7.78519 20.6585 8.57424C20.8729 8.94371 21.0431 9.33716 21.1656 9.74645C21.2715 10.0804 21.2963 10.4349 21.238 10.7804C21.2364 10.7932 21.2301 10.8049 21.2204 10.8134C21.2107 10.8219 21.1982 10.8266 21.1853 10.8265C20.8005 10.7941 20.4296 10.6674 20.1053 10.4577C19.4224 10.0105 18.8321 9.4359 18.3667 8.76522C18.268 8.62693 18.1758 8.49522 18.0836 8.35034C18.2672 9.03677 18.5825 9.68093 19.0121 10.2469C19.1153 10.3817 19.2275 10.5093 19.348 10.6289C18.7445 10.5175 18.1292 10.4843 17.5172 10.5301C17.1924 10.5497 16.8691 10.5893 16.5492 10.6487H16.806C17.2868 10.6807 17.7645 10.7489 18.235 10.8528C18.6644 10.944 19.0853 11.0718 19.4929 11.2348C19.806 11.3537 20.0941 11.5302 20.3424 11.755C20.347 11.763 20.3494 11.7721 20.3494 11.7814C20.3494 11.7906 20.347 11.7997 20.3424 11.8077C20.2695 11.9746 20.1628 12.1245 20.0291 12.248C19.8953 12.3716 19.7374 12.4661 19.5653 12.5255C19.1827 12.6797 18.7782 12.773 18.3667 12.8021C17.5597 12.8771 16.7458 12.8215 15.9565 12.6375C16.474 12.938 17.0332 13.1599 17.616 13.296C18.487 13.4539 19.3792 13.4539 20.2502 13.296L19.855 13.6714C19.5678 13.9562 19.2973 14.2574 19.045 14.5736C18.911 14.7373 18.7899 14.9113 18.6828 15.0938C18.9575 14.8348 19.2478 14.5929 19.5521 14.3694C19.9953 14.0218 20.4971 13.7564 21.0338 13.5858C21.0432 13.5835 21.053 13.5836 21.0624 13.586C21.0717 13.5884 21.0803 13.5931 21.0875 13.5996C21.0946 13.6061 21.1 13.6142 21.1033 13.6233C21.1066 13.6323 21.1076 13.6421 21.1063 13.6516C21.004 13.957 20.874 14.2524 20.7178 14.5341C20.4231 15.0775 20.0769 15.5914 19.6838 16.0685L19.5653 16.2068L19.6904 16.1541C20.354 15.8307 20.9576 15.3964 21.4751 14.8699C21.7147 14.6714 21.9351 14.451 22.1336 14.2114C22.2267 14.0893 22.3125 13.9617 22.3904 13.8294C22.4624 13.7765 22.5229 13.7096 22.5682 13.6326C22.6135 13.5556 22.6426 13.4702 22.6539 13.3816C22.7724 13.6121 22.8975 13.8492 23.0292 14.0797C23.2111 14.4013 23.4157 14.7094 23.6417 15.0016C23.7514 15.1472 23.8702 15.2858 23.9973 15.4165C23.7652 14.9843 23.5713 14.5325 23.4178 14.0665C23.1973 13.4781 23.1382 12.8415 23.2466 12.2226C23.2484 12.2121 23.2531 12.2023 23.2601 12.1942C23.267 12.1862 23.276 12.1801 23.2862 12.1768C23.2963 12.1734 23.3071 12.1728 23.3175 12.1751C23.3279 12.1773 23.3375 12.1824 23.3453 12.1897C23.633 12.4159 23.8937 12.6744 24.1224 12.9601C24.5738 13.5201 24.9482 14.1381 25.2354 14.7975C25.3407 15.0477 25.4461 15.3046 25.5317 15.568C25.6573 15.4484 25.758 15.3051 25.8281 15.1465C26.0981 14.4419 25.5317 13.678 25.1168 13.1709L24.9193 12.9338C25.6217 12.9066 26.3163 12.7757 26.9805 12.5453C27.6649 12.3209 28.3264 12.032 28.9561 11.6826C29.4781 11.3833 29.9642 11.0253 30.4049 10.6157C30.7464 10.3221 31.0534 9.99068 31.3203 9.62791C31.1688 9.73328 31.0437 9.82548 30.912 9.91109Z" fill="#B5D338"/>
</g>
<path d="M38.3406 75.2387C38.9291 74.0472 39.9556 73.1293 41.2052 72.677C41.4621 72.5848 43.8723 74.6526 44.2477 74.8831C45.2104 75.5131 46.2314 76.049 47.2968 76.4834C50.0219 77.5473 53.002 77.7766 55.8578 77.1419C61.7847 75.8248 66.6909 72.1436 72.4334 70.3853C76.5427 69.1274 81.2579 68.706 84.8009 71.4916C86.251 72.6924 87.4133 74.2032 88.202 75.9128C88.9907 77.6224 89.3857 79.4872 89.358 81.3698C89.3053 93.1907 77.5042 100.988 66.5394 101.054C62.8347 101.045 59.1505 100.502 55.601 99.4402C51.4082 98.3203 47.5049 96.3125 44.1555 93.5529C39.7301 89.7201 36.6679 83.543 37.6228 77.5897C37.7379 76.7734 37.9801 75.9802 38.3406 75.2387Z" fill="#D4C59B"/>
<g style="mix-blend-mode:multiply" opacity="0.47">
<path d="M37.6228 77.5897C37.7442 76.7723 37.9931 75.979 38.3603 75.2387C38.9489 74.0471 39.9753 73.1292 41.225 72.677C41.4818 72.5848 43.8921 74.6526 44.2675 74.8831C45.2302 75.513 46.2512 76.0489 47.3165 76.4833C49.4624 77.3184 51.7754 77.6343 54.0666 77.4053C53.902 77.9651 53.7044 78.5117 53.5003 79.0187C53.0049 80.2148 52.4055 81.3651 51.709 82.4563C51.4127 82.9305 51.0966 83.3981 50.7607 83.8525C50.3744 84.3771 49.9472 84.8703 49.4831 85.3276C49.0312 85.6684 48.729 86.1712 48.6402 86.7303C48.6467 87.0723 48.7323 87.4082 48.8905 87.7115C49.0499 88.044 49.228 88.3672 49.4239 88.6796C50.1929 89.8871 51.1773 90.9429 52.3281 91.7945C54.6847 93.4916 57.4243 94.5797 60.303 94.9621C61.712 95.1825 63.1414 95.2422 64.5638 95.1399C65.943 95.0288 67.2963 94.7022 68.5744 94.1718C70.1491 93.4799 71.5717 92.4837 72.7606 91.2406C73.9495 89.9975 74.8812 88.5319 75.5022 86.9279C75.7711 86.1812 75.9911 85.4179 76.1608 84.6427C76.591 82.7351 77.1208 80.8513 77.7479 78.999C77.902 78.5265 78.0868 78.0645 78.3011 77.616C78.4789 77.267 78.6698 76.9575 78.8674 76.5953C79.3135 75.8884 79.7181 75.1562 80.0791 74.4023C80.2533 74.0298 80.3922 73.6418 80.494 73.2433C80.5968 72.8884 80.6413 72.5192 80.6257 72.1501C80.5834 71.7818 80.4523 71.4293 80.2438 71.1228C79.7054 70.4173 78.9731 69.8841 78.1364 69.5884L77.7676 69.4435C80.2875 69.2642 82.7874 70.0009 84.8075 71.5179C86.2576 72.7187 87.4199 74.2296 88.2085 75.9391C88.9972 77.6487 89.3923 79.5135 89.3646 81.3961C89.3119 93.217 77.5108 101.014 66.546 101.08C62.8378 101.063 59.1513 100.511 55.601 99.4402C51.4082 98.3202 47.5049 96.3125 44.1555 93.5528C39.7301 89.7201 36.6679 83.5429 37.6228 77.5897Z" fill="#D4C59B"/>
</g>
<path d="M81.5476 73.217C83.4311 66.9147 85.1367 60.9483 84.4782 54.0533C84.3465 52.6309 84.0172 51.2479 83.8196 49.8321C83.6221 48.4162 83.4508 46.9872 83.9974 45.7162C84.2656 45.1451 84.7021 44.6699 85.2484 44.3544C85.7947 44.0389 86.4245 43.8982 87.0531 43.9513C87.5658 43.9818 88.0715 44.086 88.5546 44.2608C89.6582 45.0995 90.6653 46.0581 91.5575 47.1189C96.6415 52.9865 96.9247 62.5947 96.0093 69.9243C95.4064 74.7595 94.0067 79.4615 91.867 83.8393C90.5499 86.5064 86.5987 95.0346 82.6474 93.9611C81.9432 93.7381 81.3321 93.289 80.9089 92.6836C79.0386 90.2667 78.6303 86.1508 78.9793 83.1873C79.3876 79.7893 80.573 76.4834 81.5476 73.217Z" fill="#8A734A"/>
<g style="mix-blend-mode:multiply" opacity="0.59">
<path d="M90.4773 46.6447C89.8577 46.3647 89.1624 46.2998 88.5017 46.4603C87.7411 46.6777 87.0842 47.1616 86.6512 47.8235C86.0519 48.7586 86.1046 49.9769 86.1968 51.0372C86.3153 52.4135 86.4338 53.7767 86.4734 55.1531C86.6056 58.3633 86.4069 61.5786 85.8807 64.7481C85.306 67.7063 84.473 70.6084 83.3914 73.4211C82.4957 75.8643 81.4157 78.2548 80.7177 80.7507C80.1377 82.6816 79.7625 84.6682 79.5981 86.6776C79.4928 87.9199 79.5259 89.17 79.6969 90.405C78.9346 88.0847 78.6895 85.6256 78.9791 83.2005C79.3742 79.8024 80.5596 76.4965 81.5343 73.2301C83.4177 66.9279 85.1233 60.9615 84.4648 54.0665C84.3331 52.644 84.0038 51.2611 83.8062 49.8452C83.6087 48.4294 83.4375 47.0003 83.9841 45.7293C84.2522 45.1583 84.6887 44.683 85.235 44.3675C85.7813 44.052 86.4111 43.9113 87.0397 43.9644C87.5525 43.9949 88.0581 44.0992 88.5412 44.2739C89.6448 45.1127 90.6519 46.0712 91.5441 47.132C91.61 47.211 91.6759 47.2967 91.7483 47.3757C91.3565 47.0804 90.9296 46.8348 90.4773 46.6447Z" fill="#8A734A"/>
</g>
<path d="M81.0537 43.4639C80.9813 43.51 80.9549 43.5891 81.001 43.7076C81.1477 43.953 81.3567 44.1552 81.6069 44.2937C81.8505 44.4583 82.1074 44.6032 82.3642 44.7481C82.85 44.9971 83.275 45.3501 83.6088 45.782C83.8723 46.1574 84.083 46.5723 84.3662 46.9345C84.4911 47.1089 84.6474 47.2585 84.8272 47.3757C84.9847 47.4604 85.1621 47.5013 85.3408 47.4942C85.5318 47.4942 85.7228 47.4284 85.7557 47.2308C85.7593 47.0007 85.7025 46.7736 85.5911 46.5723C85.5191 46.4075 85.4377 46.247 85.3474 46.0915C84.752 45.2688 83.9744 44.5949 83.0754 44.1225C82.4644 43.7434 81.7708 43.5174 81.0537 43.4639Z" fill="#D4C59B"/>
<path d="M82.4233 42.542C82.3861 42.5675 82.36 42.6061 82.3502 42.6501C82.3404 42.6941 82.3477 42.7402 82.3706 42.7791C82.5025 43.0335 82.7034 43.2458 82.9502 43.3915C83.1872 43.5627 83.4441 43.7142 83.6943 43.8723C84.1687 44.139 84.5799 44.5051 84.8995 44.9457C85.1497 45.3342 85.3473 45.7557 85.6173 46.1245C85.7371 46.3024 85.889 46.4564 86.0651 46.5789C86.2184 46.6702 86.3937 46.718 86.5722 46.7172C86.7697 46.7172 86.9541 46.6645 86.9936 46.4669C87.0053 46.2391 86.9577 46.0122 86.8553 45.8084C86.7895 45.6437 86.7105 45.4857 86.6248 45.321C86.0528 44.5026 85.3002 43.8266 84.4253 43.3454C83.8338 42.9178 83.1464 42.6419 82.4233 42.542Z" fill="#D4C59B"/>
<path d="M83.5298 42.1995C83.4943 42.2281 83.4706 42.2688 83.4633 42.3138C83.456 42.3588 83.4656 42.4049 83.4903 42.4432C83.6408 42.6851 83.855 42.8811 84.1093 43.0095C84.3596 43.1676 84.6296 43.2993 84.8864 43.4442C85.3789 43.6769 85.8148 44.0139 86.164 44.432C86.4406 44.8008 86.6645 45.2091 86.9608 45.5581C87.091 45.7289 87.2517 45.8741 87.435 45.9862C87.5952 46.0685 87.7759 46.1028 87.9552 46.0849C88.1462 46.0849 88.3306 46.0125 88.3569 45.8083C88.3545 45.5764 88.2909 45.3493 88.1725 45.1498C88.0952 44.9883 88.0072 44.8321 87.9091 44.6822C87.2888 43.8836 86.4905 43.2409 85.5779 42.8054C84.9531 42.4433 84.251 42.2356 83.5298 42.1995Z" fill="#D4C59B"/>
<path d="M45.8544 106.875C42.351 103.984 39.1373 100.527 37.1419 96.4043C36.1607 94.3694 35.298 91.7155 35.7063 89.4237C36.0882 87.323 38.0639 86.0652 39.7827 85.0378C40.9248 84.3079 42.247 83.909 43.6022 83.8854C47.2703 83.9512 47.8893 87.2835 49.0945 90.0033C49.753 91.5442 50.484 93.0655 51.2808 94.5472C52.6286 97.0589 54.1908 99.4495 55.9499 101.692C58.0059 104.344 60.4477 106.673 63.1939 108.601C64.103 109.182 65.0642 109.678 66.0652 110.082C66.7999 110.401 67.5147 110.764 68.2054 111.169C68.3306 111.241 68.4491 111.32 68.561 111.399C68.7977 111.692 68.9472 112.046 68.9927 112.419C69.0381 112.793 68.9775 113.172 68.8179 113.513C68.5795 114.028 68.2666 114.505 67.8893 114.929C67.7734 115.094 67.6199 115.23 67.4415 115.324C67.0398 115.502 66.5854 115.265 66.1837 115.193C65.5844 115.094 64.9851 114.955 64.3859 114.824C63.2005 114.554 62.0151 114.244 60.8495 113.895C56.7617 112.712 52.8306 111.043 49.1406 108.923C47.9927 108.329 46.8939 107.644 45.8544 106.875Z" fill="#8A734A"/>
<path d="M72.2621 113.5C72.4399 113.553 73.184 113.777 72.7823 114.093C72.712 114.141 72.6303 114.171 72.5452 114.178C71.4583 114.306 70.3575 114.244 69.292 113.994C68.8837 113.922 66.48 113.645 66.7369 112.94C66.8093 112.736 67.0595 112.664 67.2703 112.644C68.0079 112.632 68.7443 112.709 69.4632 112.875C70.3135 113.013 71.1555 113.197 71.9855 113.428L72.2621 113.5Z" fill="#D4C59B"/>
<path d="M72.374 112.539C71.9029 112.289 71.4169 112.07 70.9187 111.88C70.3515 111.668 69.7706 111.494 69.1801 111.36C68.6994 111.232 68.2019 111.179 67.705 111.202C67.4993 111.194 67.2968 111.254 67.1289 111.374C66.9611 111.493 66.8371 111.664 66.7764 111.86C66.7764 111.972 66.7764 112.163 66.9015 112.209C67.2108 112.315 67.5362 112.366 67.863 112.361C68.6386 112.473 69.4079 112.625 70.1679 112.815C71.1096 113.052 72.0382 113.322 72.9865 113.52C73.2038 113.566 73.2038 113.197 73.1445 113.092C72.9387 112.845 72.6736 112.655 72.374 112.539Z" fill="#D4C59B"/>
<path d="M71.9262 115.245C71.4067 115.347 70.8809 115.413 70.3523 115.443C69.7471 115.482 69.1399 115.482 68.5347 115.443C68.0388 115.426 67.5482 115.335 67.0793 115.173C66.8805 115.124 66.7033 115.011 66.5748 114.852C66.4463 114.692 66.3737 114.495 66.3681 114.29C66.3681 114.172 66.4471 114.001 66.5854 113.994C66.9135 113.978 67.2416 114.023 67.5535 114.126C68.324 114.231 69.1077 114.304 69.8913 114.336C70.8594 114.369 71.8274 114.376 72.7955 114.455C73.0128 114.455 72.914 114.824 72.7955 114.916C72.5398 115.1 72.2399 115.214 71.9262 115.245Z" fill="#D4C59B"/>
<path d="M25.2077 80.7744C21.8402 74.6943 24.9523 66.5298 32.1587 62.5385C39.3651 58.5472 47.937 60.2405 51.3045 66.3206C54.672 72.4007 51.5599 80.5652 44.3535 84.5565C37.147 88.5478 28.5752 86.8545 25.2077 80.7744Z" fill="#8A734A"/>
<path d="M30.2865 87.086C31.6563 89.5555 38.0573 88.6138 44.5967 84.9984C51.136 81.383 55.3244 76.4373 53.9546 73.9809C52.5848 71.5245 46.1903 72.4399 39.6576 76.0685C33.1248 79.6971 28.9233 84.623 30.2865 87.086Z" fill="#6F5D3B"/>
<path d="M30.7146 84.6888C29.7924 83.4047 29.1896 81.9192 28.9563 80.3556C28.5652 78.8062 28.2596 77.2365 28.0409 75.6536C27.8206 74.1079 28.1392 72.5336 28.9431 71.1952C29.8107 70.0732 31.0233 69.2679 32.3939 68.9035C33.0843 68.6915 33.7993 68.5697 34.521 68.5413C34.8552 68.5214 35.1905 68.5347 35.522 68.5808C35.601 68.5808 35.6735 68.5808 35.7525 68.6203C35.777 68.5485 35.8056 68.4781 35.8381 68.4096C35.9714 68.1031 36.1369 67.8117 36.332 67.5403C36.7425 66.9436 37.2246 66.3995 37.7676 65.9203C38.804 64.9538 40.1305 64.3566 41.5411 64.2212C43.1031 64.2429 44.6091 64.8062 45.8019 65.8149C47.0267 66.8502 48.1961 67.9493 49.3053 69.1076C50.5042 70.1348 51.441 71.4329 52.0383 72.8943C52.6791 73.433 53.1122 74.1782 53.2632 75.0016C53.4673 76.5624 52.1568 77.8992 51.1822 78.9529C49.7954 80.4396 48.2058 81.7233 46.4604 82.7658C45.736 83.2005 44.9984 83.6022 44.2411 83.9841C43.4838 84.3661 42.7857 84.8337 42.035 85.2222C40.2219 86.1444 38.2892 86.8093 36.2925 87.1978C34.8964 87.4744 33.0656 87.8564 31.8539 86.8752C31.2283 86.3034 30.8249 85.5291 30.7146 84.6888Z" fill="#FFEBB8"/>
<g style="mix-blend-mode:multiply" opacity="0.48">
<path d="M34.1652 79.5917C34.3185 79.3074 34.5164 79.0494 34.7513 78.8278C35.1596 78.4326 35.6008 78.0704 36.0025 77.6687C36.4043 77.2744 36.756 76.832 37.0496 76.3516C37.327 75.9079 37.4837 75.3994 37.504 74.8765C37.5093 74.5571 37.4534 74.2397 37.3394 73.9414L37.7016 74.3562C37.7108 74.3701 37.7245 74.3804 37.7404 74.3854C37.7563 74.3903 37.7734 74.3897 37.7888 74.3835C37.8043 74.3773 37.8172 74.366 37.8253 74.3514C37.8334 74.3369 37.8362 74.32 37.8333 74.3036C37.8131 74.1301 37.7801 73.9584 37.7345 73.7899C37.7878 73.879 37.8496 73.9628 37.9189 74.0401C37.929 74.0498 37.9415 74.0566 37.955 74.0599C37.9686 74.0632 37.9829 74.0628 37.9962 74.0588C38.0096 74.0547 38.0217 74.0472 38.0313 74.037C38.0408 74.0268 38.0475 74.0143 38.0506 74.0006C38.0878 73.7521 38.0721 73.4985 38.0045 73.2565C38.106 73.464 38.2181 73.6663 38.3403 73.8623C38.3476 73.8732 38.3573 73.8821 38.3688 73.8883C38.3803 73.8945 38.3932 73.8977 38.4062 73.8977C38.4192 73.8977 38.4321 73.8945 38.4436 73.8883C38.4551 73.8821 38.4648 73.8732 38.4721 73.8623C38.6125 73.5853 38.6431 73.2654 38.5577 72.9667C38.7416 73.3219 38.9768 73.6481 39.2557 73.9348C39.315 73.9809 39.4138 73.9348 39.394 73.8623C39.309 73.5897 39.2494 73.3097 39.2162 73.026C39.2162 72.947 39.2162 72.8679 39.2162 72.7889C39.3551 72.9869 39.5164 73.1681 39.6969 73.3289C40.0751 73.6534 40.5275 73.8796 41.014 73.9875C41.5146 74.0872 42.0264 74.1182 42.5353 74.0797C43.5676 73.9215 44.6179 73.9215 45.6502 74.0797C46.0985 74.1552 46.505 74.3889 46.7961 74.7382C46.893 74.8913 46.9587 75.062 46.9892 75.2406C47.0197 75.4192 47.0145 75.6021 46.9739 75.7787C46.8726 76.214 46.6965 76.6284 46.4536 77.0036C46.1945 77.4241 45.9016 77.8227 45.5778 78.1956C45.0154 78.856 44.3714 79.4424 43.6614 79.9407C42.5056 80.7421 41.2327 81.3596 39.8879 81.7715C39.2071 81.982 38.5045 82.1146 37.7938 82.1666C37.1099 82.2274 36.4207 82.1649 35.7589 81.9822C35.3745 81.8872 35.0192 81.6995 34.7242 81.4354C34.4292 81.1714 34.2033 80.8391 34.0664 80.4675C34.0014 80.1727 34.0362 79.8646 34.1652 79.5917Z" fill="#77787B"/>
</g>
<path d="M42.8054 66.2825C42.8489 66.2622 42.8839 66.2273 42.9042 66.1837C42.9322 66.1286 42.9376 66.0646 42.9191 66.0056C42.9007 65.9465 42.8599 65.897 42.8054 65.8676C42.3427 65.6518 41.8161 65.6166 41.3288 65.7689C40.8416 65.9212 40.4287 66.25 40.1712 66.6908C40.1363 66.7432 40.1236 66.8073 40.136 66.8691C40.1483 66.9308 40.1847 66.9852 40.2371 67.0201C40.2895 67.055 40.3536 67.0677 40.4154 67.0554C40.4771 67.043 40.5314 67.0066 40.5664 66.9542C40.7568 66.6048 41.0739 66.3418 41.4525 66.2193C41.8311 66.0967 42.2422 66.1241 42.6013 66.2957C42.6336 66.311 42.6693 66.3178 42.705 66.3155C42.7408 66.3132 42.7753 66.3019 42.8054 66.2825Z" fill="#5F372A"/>
<path d="M29.6805 73.5594C29.7145 73.5399 29.7431 73.5122 29.7638 73.4789C29.7845 73.4455 29.7966 73.4076 29.799 73.3684C29.8454 72.9738 30.0412 72.6118 30.3462 72.3571C30.6512 72.1023 31.0422 71.9741 31.4388 71.9987C31.4702 71.9987 31.5013 71.9923 31.5302 71.9799C31.559 71.9675 31.5851 71.9494 31.6066 71.9266C31.6282 71.9037 31.6449 71.8768 31.6557 71.8473C31.6665 71.8177 31.6711 71.7864 31.6693 71.755C31.6684 71.7239 31.6615 71.6932 31.6488 71.6648C31.6361 71.6363 31.6179 71.6107 31.5952 71.5893C31.5726 71.5679 31.546 71.5511 31.5169 71.54C31.4878 71.5289 31.4568 71.5236 31.4256 71.5245C30.9135 71.5063 30.4134 71.682 30.0251 72.0165C29.6369 72.351 29.3892 72.8197 29.3315 73.3289C29.3288 73.3601 29.3322 73.3915 29.3417 73.4213C29.3512 73.4511 29.3665 73.4787 29.3867 73.5026C29.4069 73.5264 29.4316 73.5461 29.4594 73.5604C29.4872 73.5746 29.5176 73.5833 29.5488 73.5857C29.5944 73.5907 29.6403 73.5815 29.6805 73.5594Z" fill="#5F372A"/>
<path d="M44.7611 73.7569C39.1833 75.2123 36.7137 69.1932 41.3565 67.3427C43.4836 66.4932 46.019 67.0595 48.1461 67.9222C48.5346 68.3108 48.9231 68.6993 49.3249 69.0747C50.5238 70.1044 51.4606 71.4046 52.0578 72.8679C52.7012 73.4045 53.1349 74.1506 53.2827 74.9752C53.286 75.0037 53.286 75.0324 53.2827 75.0609C52.1039 72.9667 49.0153 72.644 44.7611 73.7569Z" fill="#664124"/>
<path d="M30.7146 84.6889C29.7924 83.4048 29.1896 81.9193 28.9563 80.3556C28.7851 79.5061 28.5743 78.6698 28.3899 77.8202C28.8443 75.8446 29.707 73.7768 31.3336 72.5914C35.3705 69.6345 39.1637 74.9226 34.9688 78.8805C32.058 81.6266 30.6553 84.1884 31.3007 86.2167C31.0074 85.7506 30.8083 85.2315 30.7146 84.6889Z" fill="#664124"/>
<path d="M40.5466 71.8669C40.8221 72.365 41.239 72.7701 41.7448 73.0312C42.2505 73.2922 42.8223 73.3975 43.3878 73.3336C43.9534 73.2697 44.4873 73.0395 44.922 72.6722C45.3568 72.3049 45.6729 71.817 45.8303 71.2701C45.9878 70.7231 45.9795 70.1418 45.8066 69.5996C45.6337 69.0573 45.3039 68.5785 44.8588 68.2237C44.4138 67.8689 43.8736 67.654 43.3065 67.6062C42.7394 67.5584 42.1708 67.6799 41.6727 67.9552C41.0058 68.3257 40.5129 68.9454 40.3019 69.6785C40.0908 70.4117 40.1788 71.1985 40.5466 71.8669Z" fill="white"/>
<path d="M41.1854 71.5179C41.3911 71.891 41.7029 72.1946 42.0813 72.3905C42.4597 72.5863 42.8877 72.6655 43.3111 72.6181C43.7345 72.5706 44.1343 72.3986 44.4599 72.1239C44.7855 71.8491 45.0223 71.4839 45.1403 71.0745C45.2584 70.6652 45.2523 70.23 45.1229 69.824C44.9935 69.4181 44.7466 69.0597 44.4135 68.7941C44.0803 68.5285 43.6758 68.3678 43.2513 68.3321C42.8267 68.2965 42.4011 68.3876 42.0284 68.5939C41.5305 68.8715 41.1625 69.3346 41.0046 69.8823C40.8467 70.43 40.9117 71.0179 41.1854 71.5179Z" fill="#62493E"/>
<path d="M41.5081 71.3336C41.6826 71.6391 41.9438 71.8861 42.2587 72.0431C42.5735 72.2001 42.9279 72.2602 43.277 72.2158C43.626 72.1713 43.954 72.0243 44.2195 71.7933C44.4849 71.5623 44.6758 71.2578 44.7681 70.9182C44.8604 70.5787 44.8498 70.2194 44.7378 69.8858C44.6258 69.5523 44.4173 69.2595 44.1387 69.0445C43.8602 68.8294 43.5241 68.7019 43.1731 68.678C42.822 68.6541 42.4718 68.7349 42.1667 68.9101C41.7598 69.1458 41.4623 69.5326 41.339 69.9864C41.2157 70.4402 41.2765 70.9243 41.5081 71.3336Z" fill="#312017"/>
<path d="M42.9503 69.5423C42.971 69.5804 42.999 69.614 43.0327 69.6413C43.0664 69.6686 43.1052 69.6889 43.1468 69.7012C43.1884 69.7134 43.2321 69.7173 43.2752 69.7126C43.3183 69.708 43.3601 69.6948 43.3981 69.674C43.4738 69.631 43.5299 69.5602 43.5545 69.4767C43.579 69.3931 43.5702 69.3033 43.5298 69.2262C43.4879 69.1493 43.4172 69.0923 43.3332 69.0676C43.2492 69.0429 43.1589 69.0525 43.082 69.0944C43.0052 69.1364 42.9481 69.2071 42.9234 69.2911C42.8987 69.3751 42.9084 69.4654 42.9503 69.5423Z" fill="white"/>
<path d="M43.9573 69.8982C43.9837 69.9453 44.0276 69.98 44.0795 69.9948C44.1313 70.0097 44.187 70.0034 44.2342 69.9773C44.2584 69.9643 44.2797 69.9465 44.2968 69.925C44.314 69.9036 44.3266 69.8789 44.334 69.8524C44.3414 69.8259 44.3434 69.7983 44.3398 69.771C44.3363 69.7438 44.3273 69.7175 44.3133 69.6938C44.2999 69.6705 44.282 69.6499 44.2607 69.6335C44.2393 69.617 44.2149 69.6049 44.1889 69.5979C44.1629 69.5908 44.1358 69.589 44.109 69.5925C44.0823 69.5959 44.0565 69.6046 44.0331 69.618C44.0097 69.6314 43.9892 69.6493 43.9728 69.6707C43.9563 69.692 43.9442 69.7164 43.9372 69.7424C43.9301 69.7684 43.9283 69.7956 43.9317 69.8223C43.9352 69.8491 43.9439 69.8748 43.9573 69.8982Z" fill="white"/>
<path d="M30.5762 77.3921C30.8523 77.8899 31.2698 78.2947 31.776 78.5552C32.2821 78.8157 32.8542 78.9202 33.4197 78.8555C33.9853 78.7909 34.519 78.5599 34.9533 78.1919C35.3876 77.824 35.703 77.3354 35.8596 76.7881C36.0163 76.2409 36.0071 75.6594 35.8332 75.1174C35.6593 74.5753 35.3286 74.097 34.8829 73.7429C34.4372 73.3889 33.8965 73.1749 33.3291 73.1282C32.7618 73.0814 32.1934 73.204 31.6957 73.4804C31.0287 73.8508 30.536 74.4709 30.3261 75.2045C30.1162 75.938 30.2061 76.7249 30.5762 77.3921Z" fill="white"/>
<path d="M31.2084 77.0497C31.4141 77.4228 31.7259 77.7265 32.1042 77.9223C32.4826 78.1182 32.9106 78.1974 33.334 78.1499C33.7574 78.1024 34.1572 77.9304 34.4828 77.6557C34.8085 77.3809 35.0453 77.0158 35.1633 76.6064C35.2813 76.197 35.2752 75.7618 35.1458 75.3559C35.0165 74.9499 34.7696 74.5915 34.4364 74.3259C34.1032 74.0604 33.6988 73.8996 33.2742 73.864C32.8497 73.8283 32.4241 73.9194 32.0513 74.1258C31.5534 74.4033 31.1854 74.8664 31.0275 75.4141C30.8696 75.9618 30.9346 76.5497 31.2084 77.0497Z" fill="#62493E"/>
<path d="M31.5312 76.8587C31.7018 77.1679 31.9602 77.4195 32.2738 77.5817C32.5874 77.7439 32.9421 77.8095 33.293 77.7701C33.6439 77.7307 33.9752 77.588 34.245 77.3603C34.5148 77.1325 34.711 76.8298 34.8087 76.4905C34.9064 76.1513 34.9013 75.7906 34.794 75.4542C34.6867 75.1178 34.482 74.8208 34.2059 74.6008C33.9297 74.3808 33.5945 74.2476 33.2427 74.2181C32.8908 74.1887 32.5381 74.2643 32.2292 74.4353C31.8156 74.6644 31.5097 75.0482 31.3788 75.5026C31.248 75.957 31.3027 76.4447 31.5312 76.8587Z" fill="#312017"/>
<path d="M32.9666 75.074C32.9872 75.1114 33.015 75.1443 33.0484 75.1708C33.0818 75.1974 33.1201 75.217 33.1612 75.2286C33.2022 75.2403 33.2451 75.2437 33.2875 75.2386C33.3298 75.2335 33.3707 75.2201 33.4079 75.1992C33.4836 75.1562 33.5397 75.0854 33.5642 75.0019C33.5888 74.9183 33.58 74.8285 33.5396 74.7514C33.5198 74.7112 33.492 74.6755 33.458 74.6465C33.4239 74.6174 33.3843 74.5956 33.3415 74.5824C33.2988 74.5692 33.2538 74.5648 33.2092 74.5696C33.1647 74.5743 33.1217 74.5881 33.0827 74.6101C33.0437 74.6321 33.0096 74.6617 32.9824 74.6973C32.9553 74.7329 32.9357 74.7737 32.9248 74.8171C32.914 74.8605 32.9121 74.9057 32.9193 74.9499C32.9265 74.9941 32.9426 75.0363 32.9666 75.074Z" fill="white"/>
<path d="M33.9805 75.4235C34.0069 75.4705 34.0508 75.5053 34.1027 75.5201C34.1545 75.5349 34.2102 75.5286 34.2574 75.5026C34.3061 75.4761 34.3424 75.4314 34.3584 75.3784C34.3744 75.3253 34.369 75.2681 34.3431 75.2191C34.3155 75.1715 34.2704 75.1367 34.2175 75.1219C34.1645 75.1071 34.1079 75.1136 34.0596 75.1399C34.0355 75.153 34.0141 75.1708 33.997 75.1923C33.9798 75.2137 33.9672 75.2384 33.9598 75.2649C33.9524 75.2914 33.9505 75.319 33.954 75.3463C33.9576 75.3735 33.9666 75.3998 33.9805 75.4235Z" fill="white"/>
<path d="M40.5466 71.8669C40.8221 72.365 41.239 72.7701 41.7448 73.0312C42.2505 73.2922 42.8223 73.3975 43.3878 73.3336C43.9534 73.2697 44.4873 73.0395 44.922 72.6722C45.3568 72.3049 45.6729 71.817 45.8303 71.2701C45.9878 70.7231 45.9795 70.1418 45.8066 69.5996C45.6337 69.0573 45.3039 68.5785 44.8588 68.2237C44.4138 67.8689 43.8736 67.654 43.3065 67.6062C42.7394 67.5584 42.1708 67.6799 41.6727 67.9552C41.0058 68.3257 40.5129 68.9454 40.3019 69.6785C40.0908 70.4117 40.1788 71.1985 40.5466 71.8669Z" fill="white"/>
<path d="M41.1854 71.5179C41.3911 71.891 41.7029 72.1946 42.0813 72.3905C42.4597 72.5863 42.8877 72.6655 43.3111 72.6181C43.7345 72.5706 44.1343 72.3986 44.4599 72.1239C44.7855 71.8491 45.0223 71.4839 45.1403 71.0745C45.2584 70.6652 45.2523 70.23 45.1229 69.824C44.9935 69.4181 44.7466 69.0597 44.4135 68.7941C44.0803 68.5285 43.6758 68.3678 43.2513 68.3321C42.8267 68.2965 42.4011 68.3876 42.0284 68.5939C41.5305 68.8715 41.1625 69.3346 41.0046 69.8823C40.8467 70.43 40.9117 71.0179 41.1854 71.5179Z" fill="#62493E"/>
<path d="M41.5081 71.3336C41.6826 71.6391 41.9438 71.8861 42.2587 72.0431C42.5735 72.2001 42.9279 72.2602 43.277 72.2158C43.626 72.1713 43.954 72.0243 44.2195 71.7933C44.4849 71.5623 44.6758 71.2578 44.7681 70.9182C44.8604 70.5787 44.8498 70.2194 44.7378 69.8858C44.6258 69.5523 44.4173 69.2595 44.1387 69.0445C43.8602 68.8294 43.5241 68.7019 43.1731 68.678C42.822 68.6541 42.4718 68.7349 42.1667 68.9101C41.7598 69.1458 41.4623 69.5326 41.339 69.9864C41.2157 70.4402 41.2765 70.9243 41.5081 71.3336Z" fill="#312017"/>
<path d="M42.9503 69.5423C42.971 69.5804 42.999 69.614 43.0327 69.6413C43.0664 69.6686 43.1052 69.6889 43.1468 69.7012C43.1884 69.7134 43.2321 69.7173 43.2752 69.7126C43.3183 69.708 43.3601 69.6948 43.3981 69.674C43.4738 69.631 43.5299 69.5602 43.5545 69.4767C43.579 69.3931 43.5702 69.3033 43.5298 69.2262C43.4879 69.1493 43.4172 69.0923 43.3332 69.0676C43.2492 69.0429 43.1589 69.0525 43.082 69.0944C43.0052 69.1364 42.9481 69.2071 42.9234 69.2911C42.8987 69.3751 42.9084 69.4654 42.9503 69.5423Z" fill="white"/>
<path d="M43.9573 69.8982C43.9837 69.9453 44.0276 69.98 44.0795 69.9948C44.1313 70.0097 44.187 70.0034 44.2342 69.9773C44.2584 69.9643 44.2797 69.9465 44.2968 69.925C44.314 69.9036 44.3266 69.8789 44.334 69.8524C44.3414 69.8259 44.3434 69.7983 44.3398 69.771C44.3363 69.7438 44.3273 69.7175 44.3133 69.6938C44.2999 69.6705 44.282 69.6499 44.2607 69.6335C44.2393 69.617 44.2149 69.6049 44.1889 69.5979C44.1629 69.5908 44.1358 69.589 44.109 69.5925C44.0823 69.5959 44.0565 69.6046 44.0331 69.618C44.0097 69.6314 43.9892 69.6493 43.9728 69.6707C43.9563 69.692 43.9442 69.7164 43.9372 69.7424C43.9301 69.7684 43.9283 69.7956 43.9317 69.8223C43.9352 69.8491 43.9439 69.8748 43.9573 69.8982Z" fill="white"/>
<path d="M30.5762 77.3921C30.8523 77.8899 31.2698 78.2947 31.776 78.5552C32.2821 78.8157 32.8542 78.9202 33.4197 78.8555C33.9853 78.7909 34.519 78.5599 34.9533 78.1919C35.3876 77.824 35.703 77.3354 35.8596 76.7881C36.0163 76.2409 36.0071 75.6594 35.8332 75.1174C35.6593 74.5753 35.3286 74.097 34.8829 73.7429C34.4372 73.3889 33.8965 73.1749 33.3291 73.1282C32.7618 73.0814 32.1934 73.204 31.6957 73.4804C31.0287 73.8508 30.536 74.4709 30.3261 75.2045C30.1162 75.938 30.2061 76.7249 30.5762 77.3921Z" fill="white"/>
<path d="M31.2084 77.0497C31.4141 77.4228 31.7259 77.7265 32.1042 77.9223C32.4826 78.1182 32.9106 78.1974 33.334 78.1499C33.7574 78.1024 34.1572 77.9304 34.4828 77.6557C34.8085 77.3809 35.0453 77.0158 35.1633 76.6064C35.2813 76.197 35.2752 75.7618 35.1458 75.3559C35.0165 74.9499 34.7696 74.5915 34.4364 74.3259C34.1032 74.0604 33.6988 73.8996 33.2742 73.864C32.8497 73.8283 32.4241 73.9194 32.0513 74.1258C31.5534 74.4033 31.1854 74.8664 31.0275 75.4141C30.8696 75.9618 30.9346 76.5497 31.2084 77.0497Z" fill="#62493E"/>
<path d="M31.5312 76.8587C31.7018 77.1679 31.9602 77.4195 32.2738 77.5817C32.5874 77.7439 32.9421 77.8095 33.293 77.7701C33.6439 77.7307 33.9752 77.588 34.245 77.3603C34.5148 77.1325 34.711 76.8298 34.8087 76.4905C34.9064 76.1513 34.9013 75.7906 34.794 75.4542C34.6867 75.1178 34.482 74.8208 34.2059 74.6008C33.9297 74.3808 33.5945 74.2476 33.2427 74.2181C32.8908 74.1887 32.5381 74.2643 32.2292 74.4353C31.8156 74.6644 31.5097 75.0482 31.3788 75.5026C31.248 75.957 31.3027 76.4447 31.5312 76.8587Z" fill="#312017"/>
<path d="M32.9666 75.074C32.9872 75.1114 33.015 75.1443 33.0484 75.1708C33.0818 75.1974 33.1201 75.217 33.1612 75.2286C33.2022 75.2403 33.2451 75.2437 33.2875 75.2386C33.3298 75.2335 33.3707 75.2201 33.4079 75.1992C33.4836 75.1562 33.5397 75.0854 33.5642 75.0019C33.5888 74.9183 33.58 74.8285 33.5396 74.7514C33.5198 74.7112 33.492 74.6755 33.458 74.6465C33.4239 74.6174 33.3843 74.5956 33.3415 74.5824C33.2988 74.5692 33.2538 74.5648 33.2092 74.5696C33.1647 74.5743 33.1217 74.5881 33.0827 74.6101C33.0437 74.6321 33.0096 74.6617 32.9824 74.6973C32.9553 74.7329 32.9357 74.7737 32.9248 74.8171C32.914 74.8605 32.9121 74.9057 32.9193 74.9499C32.9265 74.9941 32.9426 75.0363 32.9666 75.074Z" fill="white"/>
<path d="M33.9805 75.4235C34.0069 75.4705 34.0508 75.5053 34.1027 75.5201C34.1545 75.5349 34.2102 75.5286 34.2574 75.5026C34.3061 75.4761 34.3424 75.4314 34.3584 75.3784C34.3744 75.3253 34.369 75.2681 34.3431 75.2191C34.3155 75.1715 34.2704 75.1367 34.2175 75.1219C34.1645 75.1071 34.1079 75.1136 34.0596 75.1399C34.0355 75.153 34.0141 75.1708 33.997 75.1923C33.9798 75.2137 33.9672 75.2384 33.9598 75.2649C33.9524 75.2914 33.9505 75.319 33.954 75.3463C33.9576 75.3735 33.9666 75.3998 33.9805 75.4235Z" fill="white"/>
<path opacity="0.28" d="M33.2959 80.8824C33.3747 80.8422 33.4424 80.7834 33.4935 80.7112C38.5182 73.5858 46.9014 73.757 46.9739 73.757C47.1094 73.7421 47.2346 73.6778 47.3255 73.5763C47.4165 73.4749 47.4668 73.3434 47.4668 73.2071C47.4668 73.0708 47.4165 72.9394 47.3255 72.8379C47.2346 72.7364 47.1094 72.6721 46.9739 72.6572C45.2163 72.6684 43.4707 72.9482 41.7977 73.487C38.0799 74.6002 34.837 76.9166 32.5781 80.0724C32.5073 80.1736 32.4723 80.2955 32.4788 80.4188C32.4853 80.5421 32.5328 80.6597 32.6139 80.7528C32.6949 80.846 32.8048 80.9093 32.926 80.9328C33.0472 80.9563 33.1728 80.9386 33.2828 80.8824H33.2959Z" fill="#834C38"/>
<path d="M41.7582 79.9275C45.4461 77.886 46.368 76.4109 46.4668 75.535C46.4989 75.355 46.4908 75.1701 46.443 74.9936C46.3952 74.8171 46.3088 74.6534 46.1902 74.5143C46.1598 74.486 46.1198 74.4703 46.0783 74.4703C46.0368 74.4703 45.9968 74.486 45.9663 74.5143C45.9516 74.5289 45.9399 74.5464 45.9319 74.5656C45.9239 74.5848 45.9198 74.6054 45.9198 74.6262C45.9198 74.647 45.9239 74.6676 45.9319 74.6868C45.9399 74.706 45.9516 74.7235 45.9663 74.7382C46.0511 74.8441 46.1111 74.9678 46.1419 75.1C46.1726 75.2321 46.1734 75.3695 46.1441 75.5021C46.0322 76.3055 45.1497 77.6753 41.6002 79.6443C38.2218 81.5212 36.5623 81.508 35.7589 81.1721C35.5948 81.1134 35.4451 81.02 35.3202 80.8985C35.1952 80.7769 35.0978 80.6299 35.0345 80.4675C35.0299 80.4472 35.0213 80.4281 35.009 80.4114C34.9968 80.3946 34.9812 80.3805 34.9633 80.3701C34.9454 80.3596 34.9255 80.3529 34.9049 80.3504C34.8843 80.3479 34.8634 80.3496 34.8435 80.3555C34.8233 80.3601 34.8042 80.3688 34.7874 80.381C34.7706 80.3933 34.7566 80.4088 34.7461 80.4267C34.7356 80.4446 34.7289 80.4645 34.7264 80.4851C34.7239 80.5057 34.7256 80.5266 34.7316 80.5465C34.8046 80.7536 34.9221 80.9422 35.0756 81.0992C35.2292 81.2562 35.4152 81.3777 35.6206 81.4553C36.4833 81.8307 38.2548 81.8636 41.7516 79.9209L41.7582 79.9275Z" fill="#3C3E40"/>
<path d="M37.8465 78.6763C37.4646 77.8795 39.1175 76.9575 39.9209 76.5624C40.7244 76.1672 42.3444 75.1794 42.8185 75.9038C43.4244 76.8521 43.9512 78.2746 41.778 79.7036L41.6068 79.8024C39.2426 80.9022 38.3404 79.6839 37.8465 78.6763Z" fill="#56585A"/>
<path d="M41.7121 77.9848C41.722 77.7473 41.8022 77.518 41.9426 77.3262C42.017 77.2143 42.108 77.1143 42.2126 77.0299C42.2616 76.9912 42.3175 76.9622 42.3773 76.9443H42.4563C42.2722 77.4233 42.2722 77.9536 42.4563 78.4326C42.4165 78.4757 42.3672 78.5088 42.3123 78.5294C42.2574 78.55 42.1985 78.5574 42.1402 78.5511C42.0131 78.5231 41.9002 78.4507 41.8217 78.3469C41.7432 78.2431 41.7044 78.1147 41.7121 77.9848Z" fill="#3C3E40"/>
<path d="M38.8937 78.9199C38.9145 78.8945 38.9389 78.8723 38.9662 78.8541C39.0124 78.8134 39.0661 78.782 39.1242 78.7619C39.4727 78.6447 39.8532 78.6683 40.1845 78.8277C40.2939 78.8933 40.3772 78.9947 40.4204 79.1147C40.4636 79.2347 40.464 79.366 40.4216 79.4863C40.3947 79.5428 40.3541 79.5916 40.3035 79.6284C40.2528 79.6652 40.1938 79.6888 40.1318 79.697H40.0857C39.8091 79.3019 39.3942 78.8738 38.8937 78.9199Z" fill="#3C3E40"/>
</g>
<defs>
<clipPath id="clip0_1_594">
<rect width="120" height="115.496" fill="white" transform="matrix(-1 0 0 1 120 0)"/>
</clipPath>
</defs>
</svg>
