<svg width="133" height="79" viewBox="0 0 133 79" fill="none" xmlns="http://www.w3.org/2000/svg">
<path d="M58.6957 1.2337C57.1756 1.20706 55.6924 1.52665 54.2357 2.41194L54.2371 2.40794C53.5189 2.84488 52.7631 3.4779 52.0465 3.63099C49.7015 4.1334 47.7239 5.4695 45.4918 6.17921C44.43 6.51605 43.9192 7.16601 43.9511 8.26677C43.5156 9.05581 42.828 9.54974 42.0291 9.92708C41.3214 10.2601 40.6471 10.6405 40.4364 11.4804C40.4331 11.4831 40.4295 11.4856 40.4261 11.4885C39.5938 12.4585 38.7185 13.3949 37.8697 14.845L63.8938 6.30458C62.768 5.23432 61.599 4.32854 62.9001 2.68625C61.7331 2.76556 60.908 3.44247 59.9249 3.29046C60.4828 2.4603 61.6766 2.63604 62.3144 1.82051C61.0827 1.48444 59.878 1.25434 58.6957 1.2337ZM72.6613 6.41579C71.5647 6.48386 70.5097 6.57042 69.5996 7.35807C68.5184 8.28772 67.3032 8.55186 66.0772 7.51794C65.1518 6.73707 64.2501 6.88492 63.2007 7.39288C60.7777 8.5688 58.2923 9.61951 55.8347 10.7203C50.1336 13.286 44.4338 15.8545 38.7352 18.4258C36.9134 19.0215 36.8327 19.1871 37.2517 21.0017C37.5578 22.3266 38.1103 23.7212 36.5558 24.7093C36.3854 24.7864 36.2413 24.9116 36.141 25.0694C36.0407 25.2273 35.9886 25.4109 35.991 25.5979C35.9895 25.5989 35.9881 25.5993 35.9866 25.5999C35.583 27.0098 35.9214 28.3804 36.1775 29.7652C36.3403 30.6419 36.748 30.6084 37.4215 30.2884C38.9454 29.562 40.4916 28.8814 42.0362 28.201C46.9201 26.054 51.805 23.9085 56.6906 21.7646C56.8275 21.7701 56.9646 21.7576 57.0982 21.7273C56.9396 21.8111 56.793 21.9106 56.7129 22.0973L51.7028 25.0336L44.1586 28.8771C41.9973 29.2502 40.1227 30.4178 38.0741 31.0802C36.8062 31.4893 37.0582 31.9307 37.9224 32.4998C38.731 33.4739 39.9223 33.7147 41.0397 34.0932C41.0413 34.0923 41.0428 34.0917 41.0443 34.0906C41.9102 34.4966 42.7709 34.9162 43.6465 35.3024C44.4606 35.6644 45.2175 35.7894 45.7129 34.7569C45.9914 34.171 46.498 34.086 47.1046 34.3645C48.05 34.805 49.0508 34.8181 50.0627 34.6432L50.0618 34.6442C50.0639 34.6443 50.0661 34.6442 50.0679 34.6445L50.073 34.6486L50.0801 34.6454C50.4636 34.6788 50.8423 34.6838 51.1752 34.4399C51.6331 34.4399 52.095 34.4037 52.5473 34.4496C54.7016 34.6696 56.9448 33.9374 59.0198 35.0842C59.4137 35.3012 59.7811 34.8713 60.1332 34.6919C63.8718 32.7785 67.6061 30.8565 71.336 28.926C76.2903 26.3728 81.243 23.8201 86.1936 21.2677C86.6181 21.0479 87.5852 20.952 86.7419 20.0933V20.0863C86.1637 18.9217 85.6456 17.735 85.4405 16.4376C85.442 16.436 85.4432 16.4345 85.4445 16.433C85.379 15.4659 85.0493 14.5795 84.6317 13.7139C84.2698 12.9722 83.8622 12.7659 83.0175 13.1417C81.0622 14.0129 79.0566 14.8078 77.0526 15.5244C75.0486 16.2412 73.1879 17.3669 71.0336 17.6591C71.0315 17.6588 71.0293 17.6588 71.0272 17.6583L71.0282 17.6577C71.0087 17.3278 71.3064 17.3654 71.486 17.2653L82.1161 11.3465C82.1551 10.3542 81.7989 9.4621 81.4203 8.57696C81.4196 8.57747 81.4188 8.57784 81.418 8.57804L81.4184 8.57696C80.9091 7.28691 80.0158 6.90957 78.7244 7.42584C77.8487 7.78859 76.9157 7.99317 75.9687 8.03005V8.02712L75.9619 8.02958L75.2257 7.97013C74.1902 7.74881 73.539 6.89571 72.6608 6.41563L72.6613 6.41579ZM88.3066 23.2048C88.0658 23.2193 87.7937 23.3203 87.4727 23.4888C83.5537 25.5443 79.5999 27.5327 75.6574 29.5409C71.0245 31.9067 66.3846 34.2476 61.7685 36.6384C61.4777 36.7873 60.6611 36.7554 61.0508 37.4832C61.5597 38.4304 61.4055 39.4317 61.4317 40.4248C61.4312 40.4248 61.4308 40.4252 61.4303 40.4254V40.4294C61.4192 40.9161 61.4092 41.4022 61.4 41.8879C61.5084 42.6673 61.794 43.4115 62.2349 44.0633L62.2398 44.0644L62.2363 44.0659L62.7998 44.8161L64.1205 46.4693C64.346 48.0071 65.1294 48.0237 66.4516 47.5715C71.2445 45.9294 76.0848 44.4208 80.9069 42.8621L81.1853 43.1489C81.1865 43.1487 81.1878 43.1485 81.1891 43.1483L75.9332 45.6357C75.0578 45.8694 74.2632 46.2787 73.4768 46.7226C73.3616 46.7097 73.245 46.7289 73.14 46.778C73.0349 46.8271 72.9454 46.9042 72.8814 47.0009C70.7937 47.7775 68.7597 48.6915 66.7927 49.7368C66.7603 49.7216 66.7233 49.7195 66.6893 49.7309C66.6553 49.7422 66.6271 49.7663 66.6104 49.798C66.1865 49.8442 65.7883 50.024 65.4734 50.3115C64.7428 50.4757 63.9215 50.7138 63.9605 51.5849C64.0579 53.7627 63.3022 55.7429 62.7401 57.7746L62.7387 57.775C62.5658 58.0762 62.4895 58.4232 62.5201 58.7692C62.5508 59.1151 62.6868 59.4433 62.91 59.7095C63.3386 60.223 63.9077 59.6175 64.3781 59.4464C71.5169 56.8581 78.6497 54.2533 85.7765 51.6322C86.7187 51.287 87.9277 51.1339 88.4997 50.459C89.1149 49.7311 88.2826 48.558 88.3466 47.5601C88.427 47.1319 88.5088 46.7038 88.5892 46.2741C88.5895 46.2734 88.5897 46.2731 88.5904 46.2728C89.0191 44.955 90.0684 43.9849 90.6042 42.7269L93.048 39.3314C93.5671 38.2182 94.8403 37.8673 95.5166 36.9113L95.485 36.9221L95.5097 36.9085C96.9639 36.0165 97.5858 34.5051 98.6101 32.9326L91.9972 34.9642C91.6226 34.9889 91.2539 35.0438 90.8884 35.1145C91.0824 35.0026 91.2525 34.8537 91.3891 34.6762C91.7955 34.4814 92.206 34.2909 92.6095 34.0891C94.7388 33.0259 97.0754 32.4064 99.0794 31.076C99.0254 31.066 98.9764 31.0381 98.9403 30.9967C98.9862 31.0217 99.0321 31.0468 99.0794 31.076C99.2728 30.4957 99.2004 29.9055 99.0906 29.3307L99.0946 29.3392C98.9387 28.525 98.5811 28.1075 97.7031 28.6948C97.1482 29.0923 96.5082 29.3549 95.834 29.4618C95.8323 29.4629 95.8306 29.4639 95.8288 29.465C95.8289 29.4629 95.8293 29.4608 95.83 29.4589C94.6096 29.3669 93.35 29.3908 92.5123 28.2455H92.5163C92.1239 27.7069 91.7065 28.095 91.3085 28.2537C88.2325 29.4897 85.1573 30.7278 82.083 31.9681C81.8523 31.9895 81.6318 32.042 81.4157 32.1103C81.5477 31.9824 81.6635 31.8386 81.7422 31.6578C83.9653 30.5049 86.1864 29.3479 88.4053 28.187C89.3725 27.6804 90.9535 27.3158 91.1373 26.6006C91.3766 25.6736 89.8749 24.9122 89.328 23.9381C89.022 23.3962 88.7081 23.1806 88.3069 23.2048H88.3066ZM88.7092 51.8024C88.5753 51.7934 88.4033 51.8321 88.1824 51.923C80.4155 55.1287 72.6411 58.3166 64.8595 61.4865C64.2653 61.7344 64.1372 61.9514 64.4421 62.5693C65.1851 64.072 65.8683 65.6068 66.2512 67.253C66.2503 67.2531 66.2494 67.2533 66.2484 67.2534H66.2512V67.2553C66.2971 67.7075 66.4071 68.1655 66.3778 68.6137C66.3082 69.6506 66.4961 69.9691 67.6234 69.4681C72.7808 67.1717 77.994 65.0035 83.1501 62.7059C85.3448 61.7276 86.8394 59.9895 87.7564 57.7629C87.7547 57.763 87.7529 57.7632 87.7512 57.7633C87.7524 57.7629 87.7529 57.7622 87.7541 57.761C89.0845 56.2385 89.292 54.4184 89.1458 52.5062C89.1122 52.0719 89.0038 51.8216 88.7095 51.8022L88.7092 51.8024ZM97.272 54.6482C96.652 54.6528 96.2465 55.2935 95.9591 55.8669C95.7022 56.3778 95.5162 56.9247 95.2984 57.4564L95.2965 57.4581C94.9153 58.2443 94.6104 58.9469 93.401 58.7549C92.5507 58.6198 91.3845 59.2949 91.4666 60.1005C91.6363 61.783 90.5106 63.2236 90.8557 64.8657C90.9885 64.9875 91.1177 65.0336 91.2449 65.037C91.0914 65.13 90.948 65.2413 90.8265 65.3918C90.6121 66.2087 90.3783 67.0229 90.6051 67.8786C90.6064 67.8786 90.6075 67.8781 90.6093 67.8781C91.2719 69.3376 91.7695 69.5233 93.2013 69.1146C94.9355 68.6171 94.9284 67.1399 95.2154 65.8067C95.4781 65.1238 95.6712 64.4338 95.5921 63.6203L93.087 64.3801L93.0854 64.387C92.8885 64.4609 92.6634 64.4049 92.4658 64.4868C92.5937 64.385 92.7072 64.2656 92.7931 64.1129C93.219 63.8637 93.6237 63.5619 94.0761 63.3727C97.2114 62.0687 97.7195 59.3201 97.9547 56.4144C97.9686 55.7922 98.4 54.9239 97.5512 54.6873C97.4604 54.6613 97.3664 54.6482 97.272 54.6485V54.6482ZM83.1404 63.7619C77.8645 66.4854 72.8241 69.1435 67.7222 71.6777C66.4112 72.3305 66.1802 73.0402 66.8551 74.2163C67.1416 75.279 67.887 75.9479 68.8021 76.4739V76.4751L68.803 76.4748C68.8031 76.4748 68.8034 76.4748 68.8036 76.4751L68.8064 76.4756C69.1457 76.931 69.6239 77.1086 70.1633 77.1668C72.074 78.294 74.3549 77.2766 75.4056 74.8273C76.7417 74.0703 78.0693 73.2826 79.4165 72.5395C80.2816 72.0623 80.8912 71.4725 80.6861 70.3865C80.6865 70.386 80.6865 70.3852 80.6872 70.3848C80.9447 69.6709 81.866 69.4927 82.0413 68.7148C81.8842 67.035 83.3005 65.653 83.1419 63.7646L83.1404 63.7619Z" fill="#EC752F"/>
<path d="M34.64 26.584L28.412 52H22.148L17.396 33.568L12.608 52H6.38L0.152 26.584H5.66L9.548 46.276L14.588 26.584H20.168L25.244 46.276L29.132 26.584H34.64ZM37.5366 26.332C37.5366 25.516 37.8246 24.856 38.4006 24.352C38.9766 23.824 39.7326 23.56 40.6686 23.56C41.6046 23.56 42.3606 23.824 42.9366 24.352C43.5126 24.856 43.8006 25.516 43.8006 26.332C43.8006 27.124 43.5126 27.784 42.9366 28.312C42.3606 28.816 41.6046 29.068 40.6686 29.068C39.7326 29.068 38.9766 28.816 38.4006 28.312C37.8246 27.784 37.5366 27.124 37.5366 26.332ZM43.1886 32.056V52H38.1126V32.056H43.1886ZM52.8566 25.36V52H47.7806V25.36H52.8566ZM65.2605 31.804C66.9405 31.804 68.3685 32.2 69.5445 32.992C70.7445 33.784 71.6085 34.852 72.1365 36.196V25.36H77.1765V52H72.1365V47.824C71.6085 49.168 70.7445 50.248 69.5445 51.064C68.3685 51.856 66.9405 52.252 65.2605 52.252C63.5805 52.252 62.0685 51.844 60.7245 51.028C59.3805 50.212 58.3245 49.036 57.5565 47.5C56.8125 45.94 56.4405 44.116 56.4405 42.028C56.4405 39.94 56.8125 38.128 57.5565 36.592C58.3245 35.032 59.3805 33.844 60.7245 33.028C62.0685 32.212 63.5805 31.804 65.2605 31.804ZM66.8445 36.232C65.2605 36.232 63.9885 36.748 63.0285 37.78C62.0685 38.812 61.5885 40.228 61.5885 42.028C61.5885 43.828 62.0685 45.244 63.0285 46.276C63.9885 47.284 65.2605 47.788 66.8445 47.788C68.3805 47.788 69.6405 47.272 70.6245 46.24C71.6325 45.184 72.1365 43.78 72.1365 42.028C72.1365 40.252 71.6325 38.848 70.6245 37.816C69.6405 36.76 68.3805 36.232 66.8445 36.232ZM86.8527 25.36V52H81.7767V25.36H86.8527ZM90.8686 26.332C90.8686 25.516 91.1566 24.856 91.7326 24.352C92.3086 23.824 93.0646 23.56 94.0006 23.56C94.9366 23.56 95.6926 23.824 96.2686 24.352C96.8446 24.856 97.1326 25.516 97.1326 26.332C97.1326 27.124 96.8446 27.784 96.2686 28.312C95.6926 28.816 94.9366 29.068 94.0006 29.068C93.0646 29.068 92.3086 28.816 91.7326 28.312C91.1566 27.784 90.8686 27.124 90.8686 26.332ZM96.5206 32.056V52H91.4446V32.056H96.5206ZM110.977 28.6C109.489 28.504 108.445 28.72 107.845 29.248C107.245 29.776 106.945 30.7 106.945 32.02V32.056H110.977V36.34H106.945V52H101.869V36.34H99.3126V32.056H101.869V31.588C101.869 29.212 102.541 27.388 103.885 26.116C105.253 24.82 107.269 24.172 109.933 24.172C110.389 24.172 110.737 24.184 110.977 24.208V28.6ZM132.771 41.272C132.771 41.776 132.711 42.352 132.591 43H117.975C118.047 44.776 118.527 46.084 119.415 46.924C120.303 47.764 121.407 48.184 122.727 48.184C123.903 48.184 124.875 47.896 125.643 47.32C126.435 46.744 126.939 45.964 127.155 44.98H132.519C132.255 46.372 131.691 47.62 130.827 48.724C129.963 49.828 128.847 50.692 127.479 51.316C126.135 51.94 124.635 52.252 122.979 52.252C121.035 52.252 119.307 51.844 117.795 51.028C116.283 50.188 115.107 49 114.267 47.464C113.427 45.928 113.007 44.116 113.007 42.028C113.007 39.94 113.427 38.128 114.267 36.592C115.107 35.032 116.283 33.844 117.795 33.028C119.307 32.212 121.035 31.804 122.979 31.804C124.947 31.804 126.663 32.212 128.127 33.028C129.615 33.844 130.755 34.972 131.547 36.412C132.363 37.828 132.771 39.448 132.771 41.272ZM127.659 40.768C127.731 39.136 127.299 37.9 126.363 37.06C125.451 36.22 124.323 35.8 122.979 35.8C121.611 35.8 120.459 36.22 119.523 37.06C118.587 37.9 118.071 39.136 117.975 40.768H127.659Z" fill="white"/>
</svg>
